<svg width="24" height="24" viewBox="0 0 24 24" fill="none" xmlns="http://www.w3.org/2000/svg">
<path d="M12 1.94922C6.48 1.94922 2 6.42922 2 11.9492C2 17.4692 6.48 21.9492 12 21.9492H17V19.9492H12C7.66 19.9492 4 16.2892 4 11.9492C4 7.60922 7.66 3.94922 12 3.94922C16.34 3.94922 20 7.60922 20 11.9492V13.3792C20 14.1692 19.29 14.9492 18.5 14.9492C17.71 14.9492 17 14.1692 17 13.3792V11.9492C17 9.18922 14.76 6.94922 12 6.94922C9.24 6.94922 7 9.18922 7 11.9492C7 14.7092 9.24 16.9492 12 16.9492C13.38 16.9492 14.64 16.3892 15.54 15.4792C16.19 16.3692 17.31 16.9492 18.5 16.9492C20.47 16.9492 22 15.3492 22 13.3792V11.9492C22 6.42922 17.52 1.94922 12 1.94922ZM12 14.9492C10.34 14.9492 9 13.6092 9 11.9492C9 10.2892 10.34 8.94922 12 8.94922C13.66 8.94922 15 10.2892 15 11.9492C15 13.6092 13.66 14.9492 12 14.9492Z" fill="black" fill-opacity="0.87"/>
</svg>
