<svg width="24" height="24" viewBox="0 0 24 24" fill="none" xmlns="http://www.w3.org/2000/svg">
<path d="M22.6097 18.99L13.5297 9.91C14.4597 7.57 13.9797 4.81 12.0897 2.91C9.78972 0.610002 6.20972 0.400002 3.65972 2.26L7.49972 6.11L6.07972 7.52L2.24972 3.69C0.389717 6.23 0.599717 9.82 2.89972 12.11C4.75972 13.97 7.46972 14.46 9.78972 13.59L18.8997 22.7C19.2897 23.09 19.9197 23.09 20.3097 22.7L22.6097 20.4C23.0097 20.02 23.0097 19.39 22.6097 18.99ZM19.6097 20.59L10.1497 11.13C9.53972 11.58 8.85972 11.85 8.14972 11.95C6.78972 12.15 5.35972 11.74 4.31972 10.7C3.36972 9.76 2.92972 8.5 2.99972 7.26L6.08972 10.35L10.3297 6.11L7.23972 3.02C8.47972 2.95 9.72972 3.39 10.6797 4.33C11.7597 5.41 12.1697 6.9 11.9197 8.29C11.7997 9 11.4997 9.66 11.0397 10.25L20.4897 19.7L19.6097 20.59Z" fill="black" fill-opacity="0.87"/>
</svg>
