<svg width="24" height="24" viewBox="0 0 24 24" fill="none" xmlns="http://www.w3.org/2000/svg">
<path d="M15.0703 1.01H9.07031V3.01H15.0703V1.01ZM11.0703 14.01H13.0703V8.01H11.0703V14.01ZM19.1003 7.39L20.5203 5.97C20.0903 5.46 19.6203 4.98 19.1103 4.56L17.6903 5.98C16.1403 4.74 14.1903 4 12.0703 4C7.10031 4 3.07031 8.03 3.07031 13C3.07031 17.97 7.09031 22 12.0703 22C17.0503 22 21.0703 17.97 21.0703 13C21.0703 10.89 20.3303 8.94 19.1003 7.39ZM12.0703 20.01C8.20031 20.01 5.07031 16.88 5.07031 13.01C5.07031 9.14 8.20031 6.01 12.0703 6.01C15.9403 6.01 19.0703 9.14 19.0703 13.01C19.0703 16.88 15.9403 20.01 12.0703 20.01Z" fill="black" fill-opacity="0.87"/>
</svg>
