<svg width="28" height="28" viewBox="0 0 28 28" fill="none" xmlns="http://www.w3.org/2000/svg">
<path d="M23.1238 4.87598C20.7905 2.5426 17.566 1.09276 13.9994 1.09276C10.4337 1.09276 7.20922 2.5426 4.86797 4.87598C2.53492 7.20936 1.09302 10.4342 1.09302 14C1.09302 17.5661 2.53492 20.7906 4.86797 23.1319C7.20922 25.4653 10.4337 26.9072 13.9994 26.9072C17.566 26.9072 20.7905 25.4653 23.1238 23.1319C25.4572 20.7906 26.9067 17.5661 26.9067 14C26.9067 10.4342 25.4572 7.20936 23.1238 4.87598ZM13.9994 0C17.8603 0 21.3641 1.56548 23.8988 4.10073C26.4337 6.6357 28 10.132 28 14C28 17.868 26.4337 21.3643 23.8988 23.8993C21.3641 26.4342 17.8603 28 13.9994 28C10.1315 28 6.62737 26.4342 4.10065 23.8993C1.56573 21.3643 0 17.868 0 14C0 10.132 1.56573 6.6357 4.10065 4.10073C6.62737 1.56548 10.1315 0 13.9994 0Z" fill="#34AF23"/>
<path fill-rule="evenodd" clip-rule="evenodd" d="M14.1247 19.6753C12.9308 19.6753 11.8149 19.3187 10.8844 18.7064L8.62093 19.4273L9.34952 17.2489C8.6444 16.2876 8.22569 15.0939 8.22569 13.8145C8.22569 13.6209 8.23332 13.4427 8.2565 13.2488C8.5511 10.2801 11.0702 7.96228 14.1247 7.96228C17.2254 7.96228 19.7756 10.342 20.0083 13.3574C20.0238 13.5126 20.0238 13.6675 20.0238 13.8145C20.0238 17.0396 17.3806 19.6753 14.1247 19.6753ZM17.3416 15.2259C17.1638 15.1403 16.3266 14.7218 16.1711 14.6599C16.0004 14.6135 15.8921 14.5745 15.7759 14.7529C15.667 14.9234 15.3337 15.3031 15.2336 15.4117C15.1324 15.5358 15.0314 15.5437 14.8692 15.4657C14.6834 15.3806 14.1324 15.2025 13.4816 14.6135C12.9622 14.1558 12.6133 13.6056 12.5203 13.4427C12.4273 13.2567 12.5045 13.1792 12.5898 13.0786C12.6752 13.0088 12.7679 12.8923 12.8536 12.7837C12.8768 12.7608 12.9 12.7373 12.9155 12.7062C12.9622 12.6364 12.9851 12.5821 13.0238 12.5046C13.0857 12.3884 13.0626 12.2878 13.0085 12.21C12.9774 12.1247 12.6288 11.2722 12.481 10.9386C12.3419 10.5903 12.1943 10.6519 12.1018 10.6519C11.9927 10.6519 11.8844 10.6366 11.7682 10.6366C11.6438 10.6366 11.466 10.6754 11.3111 10.8535C11.14 11.024 10.6984 11.4274 10.6984 12.2799C10.6984 12.4735 10.7371 12.6751 10.799 12.8538C10.9619 13.4662 11.3495 13.9545 11.4041 14.0399C11.4895 14.1558 12.5898 15.9311 14.3416 16.6133C16.1013 17.2955 16.1013 17.0628 16.4114 17.0396C16.7216 17.0162 17.427 16.6365 17.5743 16.2257C17.7137 15.8304 17.7137 15.4894 17.6673 15.4117C17.6286 15.3577 17.5121 15.3031 17.3416 15.2259ZM21.14 13.6443C21.0394 9.87694 17.9384 6.86133 14.1247 6.86133C10.3577 6.86133 7.27969 9.79919 7.12475 13.5126C7.1092 13.6056 7.1092 13.7142 7.1092 13.8145C7.1092 15.125 7.48127 16.3574 8.11712 17.4117L6.8457 21.1483L10.7371 19.9156C11.7448 20.4661 12.9 20.7762 14.1247 20.7762C18.0009 20.7762 21.1476 17.6676 21.1476 13.8145C21.1476 13.7529 21.14 13.7062 21.14 13.6443Z" fill="#34AF23"/>
</svg>
