<?xml version="1.0" ?><!DOCTYPE svg  PUBLIC '-//W3C//DTD SVG 1.1//EN'  'http://www.w3.org/Graphics/SVG/1.1/DTD/svg11.dtd'><svg enable-background="new -2.712 -0.897 141.732 141.732" height="141.732px" id="Livello_1" version="1.1" viewBox="-2.712 -0.897 141.732 141.732" width="141.732px" xml:space="preserve" xmlns="http://www.w3.org/2000/svg" xmlns:xlink="http://www.w3.org/1999/xlink"><g id="Livello_68"><path d="M107.8,107.848v0.466c3.688,0,6.68,2.954,6.68,6.602h0.475c0-3.646,2.988-6.602,6.68-6.602v-0.466   c-3.688,0-6.68-2.954-6.68-6.599h-0.475C114.479,104.894,111.489,107.848,107.8,107.848 M92.134,3.222   C85.41,1.131,78.255,0,70.833,0C31.713,0,0,31.326,0,69.969s31.713,69.969,70.833,69.969c7.422,0,14.577-1.131,21.301-3.222   c-28.711-8.936-49.531-35.438-49.531-66.747C42.603,38.656,63.423,12.154,92.134,3.222 M101.672,78.421v-0.976   c-7.706,0-13.953-6.17-13.953-13.779h-0.983c0,7.609-6.248,13.779-13.953,13.779v0.976c7.705,0,13.953,6.172,13.953,13.782h0.983   C87.719,84.593,93.966,78.421,101.672,78.421 M110.515,26.723v-0.527c-4.183,0-7.574-3.35-7.574-7.479h-0.53   c0,4.132-3.394,7.479-7.574,7.479v0.527c4.184,0,7.574,3.35,7.574,7.481h0.53C102.94,30.072,106.332,26.723,110.515,26.723    M136.308,54.988v-0.812c-6.437,0-11.654-5.154-11.654-11.513h-0.819c0,6.355-5.222,11.513-11.655,11.513v0.812   c6.437,0,11.655,5.155,11.655,11.517h0.819C124.653,60.144,129.871,54.988,136.308,54.988"/></g><g id="Livello_1_1_"/></svg>