<svg width="63" height="42" viewBox="0 0 63 42" fill="none" xmlns="http://www.w3.org/2000/svg">
<rect width="63" height="42" rx="4" fill="white"/>
<path fill-rule="evenodd" clip-rule="evenodd" d="M16.4966 36.47H16.4032C16.4032 36.4233 16.38 36.3533 16.38 36.33C16.38 36.3066 16.38 36.26 16.31 36.26H16.17V36.47H16.0999V35.98H16.31C16.4032 35.98 16.4732 36.0034 16.4732 36.0967C16.4732 36.1666 16.4499 36.1899 16.4265 36.2133C16.4499 36.2366 16.4732 36.26 16.4732 36.3066V36.4C16.4732 36.4233 16.4732 36.4233 16.4966 36.4233V36.47ZM16.4032 36.1199C16.4032 36.0499 16.3565 36.0499 16.3332 36.0499H16.17V36.1899H16.31C16.3565 36.1899 16.4032 36.1666 16.4032 36.1199ZM16.8 36.2133C16.8 35.9334 16.5666 35.7 16.2633 35.7C15.9832 35.7 15.75 35.9334 15.75 36.2133C15.75 36.5165 15.9832 36.75 16.2633 36.75C16.5666 36.75 16.8 36.5165 16.8 36.2133ZM16.73 36.2133C16.73 36.47 16.5199 36.6566 16.2633 36.6566C16.0066 36.6566 15.82 36.47 15.82 36.2133C15.82 35.98 16.0066 35.77 16.2633 35.77C16.5199 35.77 16.73 35.98 16.73 36.2133Z" fill="#006E95"/>
<path fill-rule="evenodd" clip-rule="evenodd" d="M48.3 25.6541C48.3 26.4428 47.8017 26.8109 46.9098 26.8109H45.2051V26.0222H46.9098C47.0672 26.0222 47.1984 25.9959 47.2509 25.9433C47.3033 25.8906 47.3558 25.8117 47.3558 25.7065C47.3558 25.6015 47.3033 25.4963 47.2509 25.4437C47.1984 25.3911 47.0934 25.3648 46.9362 25.3648C46.123 25.3385 45.1001 25.3911 45.1001 24.2341C45.1001 23.7082 45.441 23.1297 46.359 23.1297H48.1163V23.9186H46.4902C46.3329 23.9186 46.228 23.9186 46.1493 23.9713C46.0705 24.0502 46.0181 24.1289 46.0181 24.2604C46.0181 24.3919 46.0968 24.4708 46.2017 24.5234C46.3067 24.5495 46.4116 24.576 46.5426 24.576H47.0147C47.513 24.576 47.8279 24.6811 48.0376 24.8652C48.195 25.0493 48.3 25.2859 48.3 25.6541ZM44.6018 24.8652C44.3919 24.6811 44.0772 24.576 43.5789 24.576H43.1068C42.9756 24.576 42.8707 24.5495 42.7659 24.5234C42.661 24.4708 42.5823 24.3919 42.5823 24.2604C42.5823 24.1289 42.6085 24.0502 42.7133 23.9713C42.792 23.9186 42.8969 23.9186 43.0544 23.9186H44.6805V23.1297H42.9232C41.979 23.1297 41.6643 23.7082 41.6643 24.2341C41.6643 25.3911 42.6872 25.3385 43.5002 25.3648C43.6576 25.3648 43.7624 25.3911 43.8149 25.4437C43.8673 25.4963 43.9198 25.6015 43.9198 25.7065C43.9198 25.8117 43.8673 25.8906 43.8149 25.9433C43.7363 25.9959 43.6314 26.0222 43.474 26.0222H41.7691V26.8109H43.474C44.3657 26.8109 44.864 26.4428 44.864 25.6541C44.864 25.2859 44.7592 25.0493 44.6018 24.8652ZM41.2445 26.0485H39.1725V25.3122H41.1921V24.576H39.1725V23.8923H41.2445V23.1297H38.3071V26.8109H41.2445V26.0485ZM37.3629 23.3139C37.0743 23.156 36.7334 23.1297 36.2875 23.1297H34.268V26.8109H35.1597V25.47H36.1039C36.4187 25.47 36.6022 25.4963 36.7334 25.6276C36.8908 25.8117 36.8908 26.1274 36.8908 26.3639V26.8109H37.7563V26.1011C37.7563 25.7591 37.73 25.6015 37.6251 25.4174C37.5464 25.3122 37.3891 25.1806 37.1792 25.1019C37.4154 25.023 37.8087 24.7074 37.8087 24.1289C37.8087 23.7082 37.6513 23.4717 37.3629 23.3139ZM32.3794 23.1297H29.5732L28.4453 24.3393L27.37 23.1297H23.8292V26.8109H27.3175L28.4453 25.6015L29.5207 26.8109H31.2256V25.5752H32.327C33.0877 25.5752 33.8482 25.3648 33.8482 24.3393C33.8482 23.3402 33.0614 23.1297 32.3794 23.1297ZM36.6547 24.6548C36.5235 24.7074 36.3925 24.7074 36.235 24.7074L35.1597 24.7337V23.8923H36.235C36.3925 23.8923 36.5497 23.8923 36.6547 23.9713C36.7596 24.0239 36.8383 24.1289 36.8383 24.2867C36.8383 24.4445 36.7596 24.576 36.6547 24.6548ZM32.3794 24.8389H31.2256V23.8923H32.3794C32.6943 23.8923 32.904 24.0239 32.904 24.3393C32.904 24.6548 32.6943 24.8389 32.3794 24.8389ZM28.9961 24.9704L30.3599 23.5243V26.4954L28.9961 24.9704ZM26.8716 26.0485H24.6947V25.3122H26.6355V24.576H24.6947V23.8923H26.8979L27.8683 24.9704L26.8716 26.0485ZM45.8608 20.474H44.6018L42.9494 17.7133V20.474H41.166L40.8249 19.659H38.989L38.648 20.474H37.6251C37.2055 20.474 36.6547 20.369 36.34 20.0534C36.0514 19.7379 35.8941 19.3172 35.8941 18.6598C35.8941 18.1077 35.9729 17.6081 36.3662 17.2137C36.6284 16.9244 37.1005 16.7929 37.7038 16.7929H38.5432V17.5818H37.7038C37.3891 17.5818 37.2055 17.6344 37.0218 17.7922C36.8646 17.9498 36.7858 18.2392 36.7858 18.6335C36.7858 19.0279 36.8646 19.3172 37.0218 19.5012C37.153 19.6327 37.3891 19.6853 37.6251 19.6853H38.0186L39.2775 16.7929H40.589L42.0577 20.2638V16.7929H43.4215L44.9689 19.3435V16.7929H45.8608V20.474ZM34.5564 20.474H35.4481V16.7929H34.5564V20.474ZM33.586 16.9507C33.2976 16.7929 32.9827 16.7929 32.5369 16.7929H30.5173V20.474H31.3828V19.1331H32.327C32.6418 19.1331 32.8515 19.1594 32.9827 19.2909C33.1401 19.4749 33.1139 19.7905 33.1139 20.0008V20.474H34.0056V19.7379C34.0056 19.4225 33.9794 19.2646 33.8482 19.0805C33.7697 18.9753 33.6122 18.844 33.4286 18.7651C33.6647 18.6598 34.0581 18.3705 34.0581 17.7922C34.0581 17.3714 33.8744 17.1348 33.586 16.9507ZM29.8878 19.7116H27.842V18.9753H29.8616V18.2129H27.842V17.5555H29.8878V16.7929H26.9503V20.474H29.8878V19.7116ZM26.2946 16.7929H24.8521L23.7767 19.2909L22.6227 16.7929H21.2064V20.2638L19.7114 16.7929H18.3999L16.8262 20.474H17.7704L18.1115 19.659H19.9474L20.2883 20.474H22.0719V17.5818L23.3571 20.474H24.1176L25.4029 17.5818V20.474H26.2946V16.7929ZM40.5103 18.8703L39.907 17.424L39.3037 18.8703H40.5103ZM32.904 18.2916C32.773 18.3705 32.6418 18.3705 32.4582 18.3705H31.3828V17.5555H32.4582C32.6156 17.5555 32.7991 17.5555 32.904 17.6081C33.009 17.687 33.0614 17.7922 33.0614 17.9498C33.0614 18.1077 33.009 18.2392 32.904 18.2916ZM18.4262 18.8703L19.0294 17.424L19.6327 18.8703H18.4262ZM48.0901 5.25H16.8V18.502L17.8754 16.0567H20.1573L20.4719 16.6615V16.0567H23.1472L23.7505 17.3714L24.3275 16.0567H32.8515C33.2451 16.0567 33.586 16.1357 33.8482 16.3459V16.0567H36.1826V16.3459C36.5759 16.1357 37.0743 16.0567 37.6513 16.0567H41.0348L41.3495 16.6615V16.0567H43.8411L44.2084 16.6615V16.0567H46.6476V21.2103H44.1822L43.7101 20.4214V21.2103H40.6413L40.3004 20.369H39.5398L39.1988 21.2103H37.5988C36.9695 21.2103 36.4974 21.0525 36.1826 20.8949V21.2103H32.3794V20.0271C32.3794 19.8694 32.3532 19.8431 32.2483 19.8431H32.1173V21.2103H24.7734V20.5529L24.511 21.2103H22.9636L22.7014 20.5792V21.2103H19.7375L19.4228 20.369H18.6621L18.3212 21.2103H16.8V36.75H48.0901V27.3105C47.7492 27.4683 47.2771 27.5472 46.805 27.5472H44.5231V27.2316C44.2609 27.442 43.7886 27.5472 43.3428 27.5472H36.1563V26.3639C36.1563 26.2063 36.1301 26.2063 35.9989 26.2063H35.8679V27.5472H33.5073V26.1535C33.1139 26.3376 32.6681 26.3376 32.2747 26.3376H32.0123V27.5472H29.1271L28.4453 26.7583L27.6846 27.5472H23.0423V22.3936H27.7633L28.4453 23.1823L29.1798 22.3936H32.3532C32.7205 22.3936 33.3236 22.4462 33.586 22.7091V22.3936H36.4187C36.7071 22.3936 37.2579 22.4462 37.6251 22.7091V22.3936H41.9003V22.7091C42.1364 22.4986 42.5823 22.3936 42.9756 22.3936H45.3623V22.7091C45.6247 22.5251 45.9918 22.3936 46.4639 22.3936H48.0901V5.25Z" fill="#006E95"/>
</svg>
