<svg width="63" height="42" viewBox="0 0 63 42" fill="none" xmlns="http://www.w3.org/2000/svg">
<rect width="63" height="42" rx="4" fill="white"/>
<mask id="mask0" mask-type="alpha" maskUnits="userSpaceOnUse" x="10" y="5" width="44" height="32">
<path d="M10.5 5.25H53.55V36.7941H10.5V5.25Z" fill="white"/>
</mask>
<g mask="url(#mask0)">
<path fill-rule="evenodd" clip-rule="evenodd" d="M53.55 33.8906C53.55 35.47 52.2434 36.75 50.6315 36.75H13.4182C11.8066 36.75 10.5 35.47 10.5 33.8906V8.10956C10.5 6.53003 11.8066 5.25 13.4182 5.25H50.6315C52.2434 5.25 53.55 6.53003 53.55 8.10956V33.8906Z" fill="#FFFFFE"/>
<path fill-rule="evenodd" clip-rule="evenodd" d="M13.6296 36.75C11.9055 36.7473 10.5006 35.385 10.5 33.691V8.30946C10.5006 6.61517 11.9055 5.25287 13.6296 5.25H50.4199C52.1444 5.25287 53.549 6.61517 53.55 8.30946V33.691C53.549 35.385 52.1444 36.7473 50.4199 36.75H13.6296ZM10.9889 8.30946V33.691C10.9918 35.1064 12.1667 36.2613 13.6296 36.2616H50.4199C51.8825 36.2613 53.0582 35.1064 53.0606 33.691V8.30946C53.0582 6.89363 51.8825 5.7384 50.4199 5.7384H13.6296C12.1667 5.7384 10.9918 6.89363 10.9889 8.30946Z" fill="#184977"/>
<path fill-rule="evenodd" clip-rule="evenodd" d="M14.3484 23.9346C14.3484 23.2583 13.9915 23.3027 13.65 23.2956V23.1001C13.9461 23.1144 14.2497 23.1143 14.5465 23.1143C14.8655 23.1143 15.2985 23.1001 15.861 23.1001C17.8284 23.1001 18.9 24.4006 18.9 25.7325C18.9 26.4778 18.4594 28.3501 15.7696 28.3501C15.3825 28.3501 15.0249 28.3352 14.668 28.3352C14.3264 28.3352 13.9915 28.3422 13.65 28.3501V28.1544C14.1054 28.1089 14.3264 28.0942 14.3484 27.5828V23.9346ZM15.093 27.4621C15.093 28.0415 15.5113 28.1089 15.8834 28.1089C17.525 28.1089 18.0636 26.8832 18.0636 25.7627C18.0636 24.3562 17.1521 23.341 15.6859 23.341C15.3737 23.341 15.2301 23.363 15.093 23.371V27.4621Z" fill="#1A1919"/>
<path fill-rule="evenodd" clip-rule="evenodd" d="M19.95 28.1575H20.043C20.1804 28.1575 20.2786 28.1575 20.2786 27.9126V25.9063C20.2786 25.5811 20.2052 25.5361 20.0233 25.3885V25.2703C20.254 25.1657 20.529 25.026 20.5485 25.0037C20.583 24.974 20.612 24.966 20.637 24.966C20.6611 24.966 20.6712 25.0106 20.6712 25.0704V27.9126C20.6712 28.1575 20.7793 28.1575 20.9169 28.1575H21V28.3501C20.8331 28.3501 20.6611 28.3355 20.485 28.3355C20.3083 28.3355 20.1315 28.3423 19.95 28.3501V28.1575ZM20.4751 23.8263C20.3472 23.8263 20.2346 23.6486 20.2346 23.4562C20.2346 23.2707 20.3525 23.1001 20.4751 23.1001C20.6024 23.1001 20.7157 23.2561 20.7157 23.4562C20.7157 23.6564 20.6074 23.8263 20.4751 23.8263Z" fill="#1A1919"/>
<path fill-rule="evenodd" clip-rule="evenodd" d="M21.5521 26.1167C21.5521 25.8621 21.4597 25.7933 21.0672 25.6621V25.5313C21.4263 25.4349 21.769 25.3449 22.171 25.2C22.1963 25.2 22.2206 25.2137 22.2206 25.2688V25.7169C22.6983 25.4349 23.1082 25.2 23.6696 25.2C24.3796 25.2 24.6305 25.6274 24.6305 26.1649V27.9427C24.6305 28.1707 24.8151 28.1707 25.0491 28.1707H25.2V28.35C24.9062 28.35 24.6138 28.3363 24.313 28.3363C24.0116 28.3363 23.7102 28.3427 23.409 28.35V28.1707H23.56C23.7943 28.1707 23.9609 28.1707 23.9609 27.9427V26.1585C23.9609 25.7652 23.6696 25.5724 23.1921 25.5724C22.9242 25.5724 22.4975 25.7513 22.2206 25.9036V27.9427C22.2206 28.1707 22.4055 28.1707 22.6399 28.1707H22.7901V28.35C22.4975 28.35 22.2046 28.3363 21.9029 28.3363C21.6024 28.3363 21.3008 28.3427 21 28.35V28.1707H21.1509C21.3849 28.1707 21.5521 28.1707 21.5521 27.9427V26.1167Z" fill="#1A1919"/>
<path fill-rule="evenodd" clip-rule="evenodd" d="M25.8705 26.811C25.8534 26.8911 25.8534 27.0243 25.8705 27.327C25.9198 28.1719 26.432 28.8654 27.1016 28.8654C27.5631 28.8654 27.9236 28.5985 28.233 28.2699L28.35 28.3945C27.9645 28.9371 27.4871 29.3999 26.8006 29.3999C25.468 29.3999 25.2 28.0291 25.2 27.4602C25.2 25.7163 26.3057 25.2 26.8916 25.2C27.571 25.2 28.3005 25.6536 28.3082 26.597C28.3082 26.651 28.3082 26.7038 28.3005 26.7573L28.2247 26.811H25.8705ZM27.3541 26.526C27.5631 26.526 27.5876 26.4102 27.5876 26.303C27.5876 25.8501 27.328 25.4853 26.8586 25.4853C26.348 25.4853 25.9959 25.8849 25.8955 26.526H27.3541Z" fill="#1A1919"/>
<path fill-rule="evenodd" clip-rule="evenodd" d="M28.35 28.1707H28.5996C28.8572 28.1707 29.0422 28.1707 29.0422 27.9427V26.0065C29.0422 25.7933 28.7007 25.7513 28.5619 25.6962V25.5932C29.2363 25.3794 29.606 25.2 29.6905 25.2C29.7445 25.2 29.7723 25.2207 29.7723 25.2899V25.9103H29.7917C30.0219 25.6416 30.4107 25.2 30.9739 25.2C31.2047 25.2 31.5 25.3171 31.5 25.5653C31.5 25.7513 31.3253 25.9175 31.0667 25.9175C30.7794 25.9175 30.7794 25.7513 30.4557 25.7513C30.299 25.7513 29.7816 25.9103 29.7816 26.324V27.9427C29.7816 28.1707 29.9662 28.1707 30.2249 28.1707H30.7417V28.35C30.2337 28.3427 29.8471 28.3363 29.4494 28.3363C29.0705 28.3363 28.6824 28.3427 28.35 28.35V28.1707Z" fill="#1A1919"/>
<path fill-rule="evenodd" clip-rule="evenodd" d="M31.624 28.0291C31.7137 28.6162 31.9886 29.1152 32.4922 29.1152C32.8978 29.1152 33.0492 28.7945 33.0492 28.4834C33.0492 27.433 31.5485 27.7714 31.5485 26.3392C31.5485 25.8404 31.8585 25.2 32.616 25.2C32.836 25.2 33.132 25.2806 33.4003 25.4587L33.4487 26.3654H33.2904C33.2216 25.8052 32.9809 25.4851 32.5397 25.4851C32.2643 25.4851 32.0029 25.6894 32.0029 26.072C32.0029 27.1136 33.6 26.7927 33.6 28.1896C33.6 28.7764 33.2355 29.3999 32.4158 29.3999C32.1406 29.3999 31.8164 29.2752 31.5762 29.0972L31.5 28.074L31.624 28.0291Z" fill="#1A1919"/>
<path fill-rule="evenodd" clip-rule="evenodd" d="M40.9409 24.7961H40.7317C40.5721 23.7848 39.8759 23.3776 38.9373 23.3776C37.9717 23.3776 36.5716 24.0434 36.5716 26.1199C36.5716 27.8684 37.7798 29.1232 39.071 29.1232C39.9005 29.1232 40.5897 28.5345 40.7571 27.6255L40.95 27.6771L40.7571 28.9408C40.4048 29.1661 39.4569 29.4001 38.9027 29.4001C36.9411 29.4001 35.7 28.0933 35.7 26.1466C35.7 24.3724 37.2348 23.1001 38.8785 23.1001C39.5576 23.1001 40.2116 23.3257 40.8574 23.5595L40.9409 24.7961Z" fill="#1A1919"/>
<path fill-rule="evenodd" clip-rule="evenodd" d="M40.95 28.1714H41.0429C41.1808 28.1714 41.2788 28.1714 41.2788 27.9441V24.1179C41.2788 23.6709 41.2053 23.6573 41.0186 23.5816V23.4714C41.2148 23.3823 41.4211 23.2589 41.5244 23.1758C41.5777 23.1352 41.6174 23.1001 41.6318 23.1001C41.6618 23.1001 41.6715 23.1418 41.6715 23.197V27.9441C41.6715 28.1714 41.7796 28.1714 41.9169 28.1714H42V28.3501C41.8336 28.3501 41.6618 28.3365 41.485 28.3365C41.3084 28.3365 41.1319 28.3429 40.95 28.3501V28.1714Z" fill="#1A1919"/>
<path fill-rule="evenodd" clip-rule="evenodd" d="M45.6243 28.7558C45.6243 28.9218 45.7169 28.9305 45.8604 28.9305C45.9626 28.9305 46.0891 28.9218 46.2 28.9218V29.1153C45.8357 29.1516 45.141 29.3447 44.9799 29.3999L44.9377 29.3719V28.6275C44.4301 29.0776 44.0402 29.3999 43.4381 29.3999C42.981 29.3999 42.5072 29.0776 42.5072 28.3067V25.9533C42.5072 25.714 42.4735 25.4843 42 25.439V25.2639C42.305 25.2548 42.981 25.2 43.0914 25.2C43.1854 25.2 43.1854 25.2639 43.1854 25.4665V27.8372C43.1854 28.1132 43.1854 28.9027 43.9219 28.9027C44.2094 28.9027 44.5904 28.6644 44.9459 28.3432V25.8704C44.9459 25.6868 44.5397 25.5857 44.2353 25.4943V25.329C44.9966 25.273 45.4713 25.2 45.5559 25.2C45.6243 25.2 45.6243 25.2639 45.6243 25.3654V28.7558Z" fill="#1A1919"/>
<path fill-rule="evenodd" clip-rule="evenodd" d="M47.3936 26.1649C47.7524 25.8906 48.2372 25.5827 48.7307 25.5827C49.7718 25.5827 50.4 26.4002 50.4 27.2814C50.4 28.3404 49.5382 29.4001 48.2544 29.4001C47.591 29.4001 47.241 29.2054 47.0072 29.1165L46.7388 29.3025L46.5506 29.2139C46.6308 28.7369 46.6761 28.2679 46.6761 27.7744V24.2979C46.6761 23.7718 46.541 23.7558 46.2 23.6667V23.5371C46.5593 23.4322 46.9358 23.287 47.1241 23.1892C47.2232 23.1414 47.2947 23.1001 47.3221 23.1001C47.3755 23.1001 47.3936 23.1494 47.3936 23.2142V26.1649ZM47.3936 28.3645C47.3936 28.6716 47.7169 29.1896 48.3179 29.1896C49.2779 29.1896 49.6816 28.3404 49.6816 27.6204C49.6816 26.7473 48.9465 26.0197 48.2468 26.0197C47.9134 26.0197 47.6357 26.214 47.3936 26.4002V28.3645Z" fill="#1A1919"/>
<path fill-rule="evenodd" clip-rule="evenodd" d="M13.65 33.4643H13.6984C13.8222 33.4643 13.953 33.4421 13.953 33.2072V30.8432C13.953 30.608 13.8222 30.5856 13.6984 30.5856H13.65V30.45C13.7842 30.45 13.9908 30.4679 14.1599 30.4679C14.3319 30.4679 14.5382 30.45 14.7 30.45V30.5856H14.6514C14.5282 30.5856 14.3971 30.608 14.3971 30.8432V33.2072C14.3971 33.4421 14.5282 33.4643 14.6514 33.4643H14.7V33.6C14.5349 33.6 14.3279 33.5825 14.1564 33.5825C13.9874 33.5825 13.7842 33.6 13.65 33.6V33.4643Z" fill="#1A1919"/>
<path fill-rule="evenodd" clip-rule="evenodd" d="M15.7201 33.6C15.3964 33.6 14.996 33.5821 14.6629 33.5821C14.3354 33.5821 13.9418 33.6 13.6792 33.6H13.65V33.4277H13.7726C14.0155 33.4238 14.2364 33.4108 14.2384 33.193V30.8578C14.2364 30.6396 14.0155 30.6254 13.7726 30.6226H13.65V30.45H13.6792C13.9418 30.45 14.343 30.4673 14.6703 30.4673C15.0031 30.4673 15.4038 30.45 15.7201 30.45H15.75V30.6226H15.6269C15.3838 30.6254 15.1616 30.6396 15.1604 30.8578V33.193C15.1616 33.4108 15.3838 33.4238 15.6269 33.4277H15.75V33.6H15.7201ZM15.6913 33.5618L15.6915 33.467H15.6269C15.3876 33.467 15.1031 33.439 15.1016 33.193V30.8578C15.1031 30.6113 15.3876 30.5838 15.6269 30.5838H15.6913V30.4886C15.3825 30.4888 14.9947 30.5066 14.6703 30.5066C14.3524 30.5066 13.9676 30.4899 13.7085 30.4886V30.5838H13.7726C14.0112 30.5838 14.2962 30.6113 14.2962 30.8578V33.193C14.2962 33.439 14.0112 33.467 13.7726 33.467H13.7085V33.5618C13.9676 33.5603 14.3455 33.5439 14.6629 33.5439C14.9889 33.5439 15.3757 33.5606 15.6913 33.5618Z" fill="#1A1919"/>
<path fill-rule="evenodd" clip-rule="evenodd" d="M18.2898 32.6629L18.2976 32.6542V30.9981C18.2976 30.6356 18.0743 30.5826 17.957 30.5826H17.8708V30.45C18.055 30.45 18.235 30.4675 18.4186 30.4675C18.579 30.4675 18.7402 30.45 18.9 30.45V30.5826H18.8418C18.6769 30.5826 18.493 30.6178 18.493 31.1436V33.1535C18.493 33.3083 18.4968 33.4628 18.5161 33.6H18.3674L16.3527 31.0638V32.8843C16.3527 33.2689 16.4189 33.4008 16.7201 33.4008H16.7868V33.5336C16.6185 33.5336 16.4504 33.5163 16.2822 33.5163C16.1065 33.5163 15.9263 33.5336 15.75 33.5336V33.4008H15.8049C16.0748 33.4008 16.157 33.1931 16.157 32.8408V30.9795C16.157 30.7324 15.9765 30.5826 15.8011 30.5826H15.75V30.45C15.8984 30.45 16.0513 30.4675 16.1997 30.4675C16.3174 30.4675 16.4309 30.45 16.5482 30.45L18.2898 32.6629Z" fill="#1A1919"/>
<path fill-rule="evenodd" clip-rule="evenodd" d="M18.5033 33.6L18.3439 33.5938L16.3797 31.1248V32.8744C16.3844 33.254 16.4355 33.3619 16.7269 33.366H16.8098V33.5347H16.7927C16.6252 33.5347 16.4586 33.5172 16.2935 33.5172C16.1202 33.5172 15.9424 33.5347 15.767 33.5347H15.75V33.366H15.8215C16.0773 33.3643 16.1504 33.1789 16.1532 32.8313V30.9929C16.1524 30.7604 15.9834 30.619 15.8178 30.619H15.75V30.45H15.767C15.915 30.45 16.0665 30.467 16.2116 30.467C16.3271 30.467 16.4389 30.45 16.5694 30.4567L18.2703 32.6162V31.0106C18.2684 30.6639 18.063 30.6218 17.9504 30.619H17.848V30.45H17.8651C18.0479 30.45 18.2261 30.467 18.4069 30.467C18.5644 30.467 18.723 30.45 18.883 30.45H18.9V30.619H18.8254C18.6656 30.6236 18.5017 30.6395 18.497 31.1543V33.1404C18.497 33.2933 18.5012 33.4456 18.5198 33.5781L18.5233 33.6H18.5033ZM18.3563 33.5619H18.4844C18.4671 33.4306 18.464 33.2857 18.464 33.1404V31.1543C18.464 30.6304 18.6587 30.581 18.8254 30.5807H18.8662V30.4878C18.7136 30.4891 18.5608 30.505 18.4069 30.505C18.2296 30.505 18.0573 30.4891 17.8824 30.4878L17.8819 30.5807H17.9504C18.0693 30.581 18.3039 30.6406 18.3039 31.0106L18.2987 32.6608L18.2911 32.6692L18.2779 32.6832L16.5567 30.4878C16.4416 30.4878 16.3297 30.505 16.2116 30.505C16.0698 30.505 15.9245 30.4891 15.7841 30.4878L15.7834 30.5807H15.8178C15.9994 30.581 16.1861 30.7373 16.1861 30.9929V32.8313C16.1861 33.1806 16.0999 33.4037 15.8215 33.4048L15.7841 33.4037V33.4973C15.9517 33.4959 16.1245 33.4798 16.2935 33.4798C16.455 33.4798 16.6161 33.4959 16.7758 33.4973V33.4048H16.7269C16.4223 33.4037 16.3469 33.254 16.3466 32.8744V31.0266L18.3563 33.5619Z" fill="#1A1919"/>
<path fill-rule="evenodd" clip-rule="evenodd" d="M19.4568 30.8C19.1169 30.8 19.1037 30.8781 19.0359 31.1931H18.9C18.9178 31.0721 18.9403 30.9512 18.9543 30.826C18.9725 30.7044 18.9816 30.5839 18.9816 30.4589H19.09C19.1265 30.5886 19.2396 30.5839 19.3624 30.5839H21.6969C21.8198 30.5839 21.9327 30.5796 21.9419 30.45L22.05 30.4676C22.0325 30.5839 22.014 30.7007 22.0009 30.8176C21.9919 30.9342 21.9919 31.0505 21.9919 31.1671L21.8559 31.2152C21.8467 31.0556 21.8242 30.8 21.521 30.8H20.7786V33.0987C20.7786 33.432 20.9373 33.4701 21.1542 33.4701H21.2405V33.6C21.0639 33.6 20.7469 33.5833 20.5029 33.5833C20.2311 33.5833 19.9139 33.6 19.7373 33.6V33.4701H19.8236C20.0731 33.4701 20.1992 33.4488 20.1992 33.1077V30.8H19.4568Z" fill="#1A1919"/>
<path fill-rule="evenodd" clip-rule="evenodd" d="M21.2301 33.6C21.0543 33.6 20.7422 33.583 20.5026 33.583C20.2349 33.583 19.9228 33.6 19.7478 33.6H19.7287V33.4351H19.8329C20.0788 33.4296 20.1777 33.4265 20.1832 33.0956V30.8354H19.4713V30.7981H20.2219V33.0956C20.2219 33.4381 20.0775 33.4727 19.8329 33.473H19.7669V33.5631C19.9429 33.562 20.2435 33.5463 20.5026 33.5463C20.7349 33.5463 21.033 33.562 21.2099 33.5631V33.473H21.1447C20.9288 33.4727 20.7552 33.422 20.7552 33.0868V30.7981H21.5063C21.8056 30.7992 21.8453 31.0424 21.8546 31.2012L21.9512 31.1671C21.9512 31.0557 21.9517 30.9441 21.9597 30.832C21.9728 30.7217 21.989 30.6134 22.0058 30.504L21.938 30.4932C21.9173 30.6174 21.7914 30.624 21.6796 30.6224H19.3549C19.2498 30.6226 19.1355 30.6177 19.0953 30.4987H19.0216C19.021 30.6166 19.0125 30.7311 18.9956 30.8448C18.9823 30.962 18.9618 31.0746 18.9456 31.1876H19.0409C19.0995 30.89 19.1377 30.7939 19.4713 30.7981V30.8354C19.1407 30.8417 19.148 30.8945 19.0752 31.2097L19.072 31.2243H18.9L18.9024 31.2021C18.9206 31.0831 18.9433 30.9633 18.9563 30.8394C18.9749 30.7211 18.9833 30.6027 18.9833 30.4805V30.4616H19.125L19.1284 30.475C19.1585 30.5825 19.2411 30.5833 19.3549 30.5853H21.6796C21.8039 30.5833 21.8945 30.5817 21.9021 30.4701L21.9036 30.45L21.9238 30.4538L22.05 30.4729L22.0468 30.4918C22.0291 30.6063 22.0117 30.7211 21.9982 30.8354C21.9899 30.9497 21.9899 31.0644 21.9899 31.1797V31.1926L21.9769 31.1976L21.819 31.2528L21.8179 31.2281C21.8056 31.0676 21.7884 30.8354 21.5063 30.8354H20.794V33.0868C20.7984 33.4084 20.9318 33.431 21.1447 33.4351H21.2491V33.6H21.2301Z" fill="#1A1919"/>
<path fill-rule="evenodd" clip-rule="evenodd" d="M22.05 33.4643H22.102C22.2344 33.4643 22.3751 33.4421 22.3751 33.2072V30.8432C22.3751 30.608 22.2344 30.5856 22.102 30.5856H22.05V30.45C22.2744 30.45 22.6592 30.4679 22.9687 30.4679C23.2792 30.4679 23.6626 30.45 23.9136 30.45C23.9072 30.644 23.9106 30.9426 23.9215 31.1407L23.8103 31.1766C23.7926 30.8831 23.7483 30.6491 23.3606 30.6491H22.8481V31.8306H23.2865C23.508 31.8306 23.5562 31.6778 23.5781 31.4338H23.6888C23.6814 31.6101 23.6775 31.7861 23.6775 31.9618C23.6775 32.1337 23.6814 32.305 23.6888 32.4762L23.5781 32.5032C23.5562 32.2327 23.5451 32.0568 23.2901 32.0568H22.8481V33.1077C22.8481 33.4015 23.0613 33.4015 23.2977 33.4015C23.7407 33.4015 23.9362 33.3651 24.047 32.8513L24.15 32.8824C24.1021 33.122 24.0581 33.3605 24.0249 33.6C23.7884 33.6 23.3639 33.5825 23.0324 33.5825C22.6994 33.5825 22.2605 33.6 22.05 33.6V33.4643Z" fill="#1A1919"/>
<path fill-rule="evenodd" clip-rule="evenodd" d="M24.0081 33.6C23.7751 33.6 23.3572 33.5814 23.0315 33.5814C22.7043 33.5814 22.2727 33.6 22.0652 33.6H22.05V33.4277H22.1164C22.2478 33.425 22.3674 33.4108 22.369 33.193V30.8578C22.3674 30.6399 22.2478 30.6254 22.1164 30.6226H22.05V30.45H22.0652C22.2871 30.45 22.6649 30.4673 22.9692 30.4673C23.2745 30.4673 23.6516 30.45 23.8988 30.45H23.9149L23.9144 30.4705C23.912 30.5372 23.9105 30.6165 23.9105 30.7003C23.9105 30.8544 23.9144 31.0233 23.9215 31.1502L23.9222 31.166L23.91 31.1706L23.7823 31.2116L23.7817 31.1886C23.7603 30.8994 23.7287 30.689 23.3548 30.6847H22.8653L22.865 31.8136H23.2818C23.4911 31.8109 23.5285 31.6796 23.5533 31.4392L23.5541 31.4213H23.6938L23.6935 31.4417C23.6865 31.6159 23.6822 31.7892 23.6822 31.9628C23.6822 32.1313 23.6865 32.3006 23.6935 32.47L23.6938 32.4862L23.6806 32.4899L23.5541 32.5208L23.5533 32.4998C23.5281 32.2277 23.5265 32.0785 23.2855 32.0753H22.8653V33.0946C22.8658 33.3656 23.0561 33.3641 23.2928 33.3656C23.73 33.3624 23.9052 33.3361 24.0146 32.8361L24.0183 32.8181L24.0336 32.8211L24.15 32.8582L24.1467 32.8766C24.0995 33.1125 24.0562 33.3482 24.0234 33.5841L24.0206 33.6H24.0081ZM23.9947 33.5615C24.0264 33.3361 24.0678 33.111 24.1123 32.8866L24.0408 32.8645C23.9321 33.3631 23.7214 33.4076 23.2928 33.4042C23.0639 33.4042 22.8352 33.4042 22.8339 33.0946V32.0372H23.2855C23.5391 32.034 23.5647 32.2216 23.5828 32.4752L23.6612 32.4555C23.6542 32.2911 23.6506 32.1261 23.6506 31.9628C23.6506 31.7954 23.6542 31.6284 23.6612 31.4601H23.5828C23.5623 31.693 23.5031 31.8555 23.2818 31.8526H22.8339V30.646H23.3548C23.7324 30.6423 23.7949 30.8822 23.8114 31.1627L23.8896 31.1365C23.8833 31.0108 23.8791 30.8492 23.8791 30.7003C23.8791 30.6241 23.8807 30.5517 23.8828 30.4886C23.636 30.4899 23.2678 30.5061 22.9692 30.5061C22.6708 30.5061 22.3035 30.4899 22.0812 30.4886V30.5834H22.1164C22.2456 30.5838 22.4001 30.6113 22.4009 30.8578V33.193C22.4001 33.439 22.2456 33.4662 22.1164 33.4673H22.0812V33.5615C22.2926 33.5606 22.7124 33.5439 23.0315 33.5439C23.352 33.5439 23.7606 33.5606 23.9947 33.5615Z" fill="#1A1919"/>
<path fill-rule="evenodd" clip-rule="evenodd" d="M24.5611 30.9279C24.5611 30.5989 24.3764 30.5854 24.2333 30.5854H24.15V30.45C24.2977 30.45 24.5836 30.4679 24.8652 30.4679C25.1414 30.4679 25.3631 30.45 25.6075 30.45C26.1877 30.45 26.7053 30.6032 26.7053 31.2444C26.7053 31.6503 26.4284 31.8981 26.0643 32.0389L26.8524 33.1934C26.982 33.3844 27.0734 33.4379 27.3 33.4643V33.6C27.1475 33.6 27 33.5825 26.8483 33.5825C26.7053 33.5825 26.5571 33.6 26.4148 33.6C26.0594 33.1444 25.7548 32.6572 25.4552 32.1374H25.1513V33.1037C25.1513 33.4512 25.317 33.4643 25.5284 33.4643H25.612V33.6C25.3486 33.6 25.0822 33.5825 24.8188 33.5825C24.5974 33.5825 24.3806 33.6 24.15 33.6V33.4643H24.2333C24.4045 33.4643 24.5611 33.388 24.5611 33.2213V30.9279ZM25.1513 31.9746H25.3767C25.8384 31.9746 26.087 31.8037 26.087 31.2709C26.087 30.8696 25.8241 30.6124 25.4132 30.6124C25.2747 30.6124 25.2157 30.6262 25.1513 30.6307V31.9746Z" fill="#1A1919"/>
<path fill-rule="evenodd" clip-rule="evenodd" d="M27.2809 33.6C27.1281 33.6 26.9833 33.5821 26.8335 33.5821C26.6947 33.5821 26.549 33.6 26.3904 33.5925C26.041 33.1437 25.7415 32.6652 25.4474 32.1563H25.1782V33.0899C25.1832 33.4255 25.3207 33.423 25.5312 33.4277H25.6334V33.6H25.6132C25.3529 33.6 25.0882 33.5821 24.8302 33.5821C24.6126 33.5821 24.3986 33.6 24.1699 33.6H24.15V33.4277H24.2521C24.4159 33.4265 24.5543 33.3566 24.555 33.2068V30.9415C24.5516 30.6254 24.3935 30.6269 24.2521 30.6226H24.15V30.45H24.1699C24.3173 30.45 24.5984 30.4673 24.8762 30.4673C25.1481 30.4673 25.3665 30.45 25.6093 30.45C26.1835 30.4511 26.712 30.6059 26.7133 31.2534C26.7133 31.6557 26.4416 31.9071 26.0904 32.0473L26.8552 33.1687C26.9826 33.3536 27.0619 33.3998 27.2835 33.4277L27.3 33.4302V33.6H27.2809ZM25.1586 32.117H25.4698L25.4755 32.1269C25.772 32.639 26.0713 33.1204 26.4066 33.5618C26.5452 33.5618 26.6916 33.5439 26.8335 33.5439C26.9788 33.5439 27.1195 33.5595 27.2609 33.5615V33.4636C27.0475 33.4381 26.9471 33.375 26.8228 33.1903L26.0299 32.0299L26.0523 32.021C26.409 31.8835 26.6733 31.6454 26.6735 31.2534C26.6733 30.635 26.1818 30.4916 25.6093 30.4886C25.3694 30.4886 25.1505 30.5066 24.8762 30.5066C24.6086 30.5066 24.3383 30.4899 24.1893 30.4886V30.5834H24.2521C24.3935 30.5838 24.5947 30.6067 24.5947 30.9415V33.2068C24.5947 33.3857 24.4235 33.467 24.2521 33.4673H24.1893V33.5615C24.4083 33.5606 24.6162 33.5439 24.8302 33.5439C25.0845 33.5439 25.3417 33.5606 25.5936 33.5615V33.4673H25.5312C25.3238 33.467 25.1384 33.4419 25.1384 33.0899V32.117H25.1586ZM25.1586 31.9947H25.1384V30.6298L25.1558 30.6285C25.2182 30.6236 25.2796 30.6113 25.4174 30.6113C25.8322 30.6113 26.1023 30.875 26.1027 31.2814C26.1015 31.8136 25.8408 31.9945 25.3813 31.9947H25.1586ZM25.3813 31.9567C25.8322 31.9523 26.0594 31.7993 26.0639 31.2814C26.0611 30.892 25.8141 30.6504 25.4174 30.6487C25.2944 30.6487 25.2363 30.6599 25.1782 30.6654V31.9567H25.3813Z" fill="#1A1919"/>
<path fill-rule="evenodd" clip-rule="evenodd" d="M29.8394 32.6629L29.8462 32.6542V30.9981C29.8462 30.6356 29.6239 30.5826 29.5064 30.5826H29.4207V30.45C29.6046 30.45 29.784 30.4675 29.9684 30.4675C30.1292 30.4675 30.2884 30.45 30.45 30.45V30.5826H30.391C30.2266 30.5826 30.0429 30.6178 30.0429 31.1436V33.1535C30.0429 33.3083 30.0467 33.4628 30.066 33.6H29.9179L27.9031 31.0638V32.8843C27.9031 33.2689 27.9691 33.4008 28.2704 33.4008H28.337V33.5336C28.1689 33.5336 28.0004 33.5163 27.8323 33.5163C27.6556 33.5163 27.4759 33.5336 27.3 33.5336V33.4008H27.3543C27.6245 33.4008 27.7071 33.1931 27.7071 32.8408V30.9795C27.7071 30.7324 27.5269 30.5826 27.3509 30.5826H27.3V30.45C27.4481 30.45 27.6018 30.4675 27.7502 30.4675C27.8665 30.4675 27.9805 30.45 28.0981 30.45L29.8394 32.6629Z" fill="#1A1919"/>
<path fill-rule="evenodd" clip-rule="evenodd" d="M30.0535 33.6L29.8946 33.5938L27.93 31.1251V32.8742C27.9345 33.2544 27.9855 33.3619 28.2774 33.366H28.3594V33.5347H28.3426C28.1752 33.5347 28.0091 33.5165 27.8433 33.5165C27.6705 33.5165 27.4916 33.5347 27.3173 33.5347H27.3V33.366H27.3712C27.6269 33.3648 27.7001 33.1789 27.7026 32.8303V30.9922C27.7022 30.7596 27.5334 30.619 27.3678 30.619H27.3V30.45H27.3173C27.4651 30.45 27.6166 30.467 27.7627 30.467C27.8764 30.467 27.9884 30.45 28.1183 30.4556L29.8198 32.6162V31.0106C29.8188 30.6639 29.6127 30.621 29.5002 30.619H29.398V30.45H29.4149C29.5977 30.45 29.7762 30.467 29.9571 30.467C30.1148 30.467 30.2733 30.45 30.4328 30.45H30.45V30.619H30.3753C30.2156 30.6233 30.051 30.6395 30.0472 31.1543V33.1404C30.0472 33.2933 30.0506 33.4446 30.0704 33.5785L30.0723 33.6H30.0535ZM29.907 33.5619H30.0339C30.0169 33.4314 30.0135 33.2857 30.0135 33.1404V31.1543C30.0138 30.6304 30.2096 30.5818 30.3753 30.5807H30.416V30.4878C30.2636 30.4891 30.1107 30.505 29.9571 30.505C29.7793 30.505 29.6068 30.4891 29.4317 30.4878V30.5807H29.5002C29.6194 30.5818 29.8538 30.6406 29.8538 31.0106L29.8483 32.6608L29.8412 32.6692L29.8291 32.6836L28.107 30.4878C27.9918 30.4878 27.8796 30.505 27.7627 30.505C27.6191 30.505 27.4745 30.4891 27.3338 30.4878V30.5807H27.3678C27.5499 30.5818 27.7362 30.7366 27.7362 30.9922V32.8303C27.7362 33.1806 27.6487 33.4037 27.3712 33.4048L27.3338 33.4045V33.4972C27.501 33.4959 27.6734 33.4798 27.8433 33.4798C28.0056 33.4798 28.1665 33.4959 28.3264 33.4972V33.4048H28.2774C27.9728 33.4045 27.8969 33.2544 27.896 32.8742V31.0273L29.907 33.5619Z" fill="#1A1919"/>
<path fill-rule="evenodd" clip-rule="evenodd" d="M31.1949 32.9771C31.1494 33.1247 31.0949 33.2392 31.0949 33.3165C31.0949 33.4476 31.285 33.4692 31.4335 33.4692H31.4838V33.6C31.3026 33.5906 31.1185 33.5831 30.937 33.5831C30.7745 33.5831 30.613 33.5906 30.45 33.6V33.4692H30.4775C30.6531 33.4692 30.8025 33.3688 30.8695 33.1857L31.5914 31.1869C31.6504 31.0253 31.7317 30.8076 31.7592 30.646C31.9026 30.5984 32.0839 30.5118 32.1693 30.4589C32.1833 30.4544 32.1916 30.45 32.2053 30.45C32.219 30.45 32.2273 30.45 32.2372 30.4636C32.2505 30.4981 32.2637 30.5373 32.2777 30.5721L33.1083 32.8508C33.1624 33.0029 33.2161 33.164 33.2738 33.2954C33.3288 33.4176 33.4236 33.4692 33.573 33.4692H33.6V33.6C33.3968 33.5906 33.1932 33.5831 32.9776 33.5831C32.7565 33.5831 32.5301 33.5906 32.3001 33.6V33.4692H32.3498C32.4529 33.4692 32.6301 33.4519 32.6301 33.3429C32.6301 33.2867 32.5892 33.1689 32.5389 33.0289L32.3631 32.5238H31.339L31.1949 32.9771ZM31.8536 31.0472H31.8442L31.4249 32.2801H32.268L31.8536 31.0472Z" fill="#1A1919"/>
<path fill-rule="evenodd" clip-rule="evenodd" d="M33.5803 33.599C33.38 33.5907 33.179 33.5811 32.9667 33.5811C32.7481 33.5811 32.5257 33.5907 32.2982 33.599L32.2776 33.6V33.4318H32.3463C32.4496 33.4318 32.6028 33.4095 32.6032 33.3266C32.6042 33.2775 32.5642 33.1596 32.5151 33.0228L32.3453 32.5358H31.362L31.2233 32.9708C31.1784 33.1171 31.1242 33.2308 31.125 33.3008C31.1266 33.4059 31.2929 33.4318 31.4409 33.4318H31.5095V33.6L31.4892 33.599C31.311 33.5907 31.1291 33.5811 30.9507 33.5811C30.7916 33.5811 30.6304 33.5907 30.4708 33.599L30.45 33.6V33.4318H30.4963C30.662 33.4315 30.8003 33.3401 30.8648 33.1653L31.5788 31.1898C31.6364 31.0305 31.7174 30.8164 31.7558 30.6444C31.8957 30.5986 32.0751 30.5118 32.1607 30.4598C32.1732 30.4556 32.1855 30.45 32.2034 30.45C32.2144 30.4494 32.2383 30.4522 32.2528 30.4746C32.2655 30.51 32.2797 30.5486 32.2932 30.5833L33.114 32.8343C33.1665 32.985 33.2198 33.144 33.2782 33.2715C33.3298 33.3862 33.4117 33.4315 33.555 33.4318H33.6V33.6L33.5803 33.599ZM32.3166 33.5607C32.5372 33.5532 32.7537 33.5449 32.9667 33.5449C33.1734 33.5449 33.3678 33.5532 33.5615 33.5607V33.4706H33.555C33.4021 33.4716 33.2969 33.4136 33.2423 33.2867C33.1842 33.1567 33.13 32.9968 33.0774 32.8462L32.2565 30.595C32.243 30.5607 32.2304 30.5222 32.2187 30.4916C32.2144 30.4873 32.2154 30.4873 32.2118 30.4873H32.2034C32.1944 30.4873 32.189 30.4899 32.1776 30.4927C32.0918 30.5465 31.9131 30.6314 31.7805 30.6649C31.7533 30.828 31.673 31.043 31.6151 31.2025L30.9018 33.1775C30.8339 33.3645 30.6772 33.4709 30.4963 33.4706H30.4888V33.5607C30.6417 33.5532 30.796 33.5449 30.9507 33.5449C31.1232 33.5449 31.299 33.5532 31.4696 33.5607V33.4706H31.4409C31.2953 33.4686 31.0925 33.4533 31.0874 33.3008C31.0877 33.2155 31.1424 33.1053 31.1861 32.9599L31.205 32.9652L31.1861 32.9594L31.3329 32.4995H32.3725L32.551 33.0105C32.6011 33.149 32.6416 33.2637 32.6416 33.3266C32.6351 33.4584 32.4474 33.4682 32.3463 33.4706H32.3166V33.5607ZM31.4053 32.2952L31.8321 31.0395H31.8561V31.0585L31.8514 31.0598L31.8561 31.0585V31.0395H31.8694L32.2932 32.2952H31.4053ZM31.4587 32.2576H32.2392L31.8512 31.1043L31.4587 32.2576Z" fill="#1A1919"/>
<path fill-rule="evenodd" clip-rule="evenodd" d="M34.1574 30.8C33.8179 30.8 33.8042 30.8781 33.736 31.1931H33.6C33.6178 31.0721 33.6409 30.9512 33.655 30.826C33.6726 30.7044 33.6814 30.5839 33.6814 30.4589H33.7909C33.8263 30.5886 33.9398 30.5839 34.0619 30.5839H36.398C36.5197 30.5839 36.6328 30.5796 36.6417 30.45L36.75 30.4676C36.7332 30.5839 36.7152 30.7007 36.701 30.8176C36.691 30.9342 36.691 31.0505 36.691 31.1671L36.5558 31.2152C36.5478 31.0556 36.525 30.8 36.221 30.8H35.4788V33.0987C35.4788 33.432 35.6374 33.4701 35.8544 33.4701H35.9409V33.6C35.7641 33.6 35.4478 33.5833 35.2027 33.5833C34.9317 33.5833 34.614 33.6 34.4375 33.6V33.4701H34.5237C34.7732 33.4701 34.8995 33.4488 34.8995 33.1077V30.8H34.1574Z" fill="#1A1919"/>
<path fill-rule="evenodd" clip-rule="evenodd" d="M35.9298 33.6C35.7545 33.6 35.4417 33.583 35.2019 33.583C34.9354 33.583 34.623 33.6 34.4481 33.6H34.4284V33.4351H34.5329C34.779 33.4296 34.8776 33.4265 34.8836 33.0956L34.8832 30.8354H34.1718V30.7981H34.9226V33.0956C34.9226 33.4381 34.778 33.4719 34.5329 33.4727H34.4672V33.5635C34.6436 33.562 34.9433 33.5463 35.2019 33.5463C35.4352 33.5463 35.7338 33.562 35.9099 33.5635V33.4727H35.8444C35.6294 33.4719 35.4556 33.4225 35.4553 33.0868V30.7981H36.206C36.5058 30.7992 36.5448 31.0424 36.5534 31.2012L36.6503 31.1671C36.6503 31.0557 36.651 30.9441 36.6601 30.8325C36.6721 30.7225 36.689 30.6134 36.7052 30.5045L36.6378 30.4932C36.6174 30.6174 36.4914 30.6244 36.3804 30.6224H34.055C33.9498 30.6235 33.8359 30.6177 33.7954 30.4984H33.7224C33.7214 30.6164 33.7126 30.7311 33.6951 30.8448C33.6829 30.9625 33.6615 31.0754 33.6444 31.1876H33.7403C33.7989 30.89 33.8376 30.7934 34.1718 30.7981V30.8354C33.841 30.8409 33.8482 30.8945 33.7755 31.2097L33.7722 31.2243H33.6L33.6027 31.2031C33.6214 31.0831 33.6434 30.9633 33.6564 30.8404C33.6746 30.7211 33.6829 30.6027 33.6829 30.4805V30.4616H33.8246L33.8283 30.475C33.8596 30.5825 33.9408 30.5833 34.055 30.5853H36.3804C36.5039 30.5833 36.5939 30.5817 36.6019 30.4705L36.6025 30.45L36.6233 30.4538L36.75 30.4729L36.7469 30.4918C36.7285 30.6063 36.7116 30.7211 36.6981 30.8354C36.689 30.9497 36.689 31.0645 36.689 31.1797V31.1926L36.676 31.1976L36.5181 31.2528L36.5174 31.2281C36.5058 31.0676 36.488 30.8354 36.206 30.8354H35.4936V33.0868C35.4981 33.4084 35.6317 33.431 35.8444 33.4351H35.9484V33.6H35.9298Z" fill="#1A1919"/>
<path fill-rule="evenodd" clip-rule="evenodd" d="M36.75 33.4643H36.7982C36.9222 33.4643 37.0525 33.4421 37.0525 33.2072V30.8432C37.0525 30.608 36.9222 30.5856 36.7982 30.5856H36.75V30.45C36.8843 30.45 37.0904 30.4679 37.2588 30.4679C37.4313 30.4679 37.6379 30.45 37.8 30.45V30.5856H37.7517C37.6273 30.5856 37.4965 30.608 37.4965 30.8432V33.2072C37.4965 33.4421 37.6273 33.4643 37.7517 33.4643H37.8V33.6C37.6347 33.6 37.4279 33.5825 37.2561 33.5825C37.0871 33.5825 36.8843 33.6 36.75 33.6V33.4643Z" fill="#1A1919"/>
<path fill-rule="evenodd" clip-rule="evenodd" d="M37.7861 33.6C37.6242 33.6 37.4239 33.5814 37.2568 33.5814C37.0929 33.5814 36.8951 33.6 36.7643 33.6H36.75V33.4277H36.8114C36.932 33.425 37.0433 33.4108 37.0441 33.193V30.8578C37.0433 30.6399 36.932 30.6254 36.8114 30.6226H36.75V30.45H36.7643C36.8951 30.45 37.0966 30.4673 37.2595 30.4673C37.4264 30.4673 37.6273 30.45 37.7861 30.45H37.8V30.6226H37.7392C37.6166 30.6254 37.5064 30.6399 37.5053 30.8578V33.193C37.5064 33.4108 37.6166 33.425 37.7392 33.4277H37.8V33.6H37.7861ZM37.7708 33.5615V33.467H37.7392C37.619 33.467 37.4769 33.439 37.4769 33.193V30.8578C37.4769 30.6113 37.619 30.5838 37.7392 30.5834H37.7708V30.4886C37.6164 30.4899 37.4225 30.5061 37.2595 30.5061C37.1005 30.5061 36.9088 30.4899 36.7789 30.4886V30.5834H36.8114C36.9303 30.5838 37.073 30.6113 37.0734 30.8578V33.193C37.073 33.439 36.9303 33.467 36.8114 33.467H36.7789V33.5615C36.908 33.5595 37.0973 33.5439 37.2568 33.5439C37.4192 33.5439 37.6129 33.5603 37.7708 33.5615Z" fill="#1A1919"/>
<path fill-rule="evenodd" clip-rule="evenodd" d="M39.3452 30.45C40.2382 30.45 40.95 31.0217 40.95 31.9432C40.95 32.9385 40.2587 33.6 39.3667 33.6C38.4783 33.6 37.8 32.9768 37.8 32.0464C37.8 31.147 38.4742 30.45 39.3452 30.45ZM39.4084 33.4095C40.2214 33.4095 40.3631 32.6691 40.3631 32.0382C40.3631 31.4059 40.033 30.6404 39.3372 30.6404C38.6044 30.6404 38.3864 31.3155 38.3864 31.8948C38.3864 32.6691 38.7301 33.4095 39.4084 33.4095Z" fill="#1A1919"/>
<path fill-rule="evenodd" clip-rule="evenodd" d="M37.8 32.0465C37.8017 31.1471 38.4758 30.4514 39.3458 30.45V30.4873C38.4945 30.4873 37.836 31.1669 37.8351 32.0465C37.8368 32.9557 38.4976 33.5624 39.3674 33.5627C40.2401 33.5624 40.9136 32.918 40.9147 31.9439C40.9139 31.0443 40.2215 30.4882 39.3458 30.4873V30.45C40.2348 30.4509 40.9484 31.0215 40.95 31.9439C40.949 32.9377 40.2575 33.5983 39.3674 33.6C38.4816 33.5983 37.8017 32.9763 37.8 32.0465ZM38.3799 31.8966C38.3812 31.3211 38.5986 30.6377 39.3379 30.6377C40.041 30.6393 40.3689 31.41 40.3704 32.0384C40.3689 32.6619 40.2269 33.4112 39.4086 33.4112V33.375C40.1959 33.3743 40.3327 32.6619 40.334 32.0384C40.334 31.4189 40.011 30.6766 39.3379 30.6754C38.6276 30.6762 38.4177 31.327 38.4158 31.8966C38.4161 32.6584 38.7528 33.3738 39.4086 33.375V33.4112C38.7213 33.4106 38.3812 32.6664 38.3799 31.8966Z" fill="#1A1919"/>
<path fill-rule="evenodd" clip-rule="evenodd" d="M44.3357 32.6629L44.3465 32.6542V30.9981C44.3465 30.6356 44.0482 30.5826 43.8918 30.5826H43.7782V30.45C44.0227 30.45 44.2632 30.4675 44.5077 30.4675C44.7221 30.4675 44.936 30.45 45.15 30.45V30.5826H45.0716C44.853 30.5826 44.6068 30.6178 44.6068 31.1436V33.1535C44.6068 33.3083 44.6123 33.4628 44.6388 33.6H44.4403L41.7533 31.0638V32.8843C41.7533 33.2689 41.8423 33.4008 42.2432 33.4008H42.3326V33.5336C42.1081 33.5336 41.8842 33.5163 41.6599 33.5163C41.4249 33.5163 41.1848 33.5336 40.95 33.5336V33.4008H41.0233C41.3838 33.4008 41.4926 33.1931 41.4926 32.8408V30.9795C41.4926 30.7324 41.2535 30.5826 41.0175 30.5826H40.95V30.45C41.1483 30.45 41.3515 30.4675 41.5501 30.4675C41.7063 30.4675 41.8568 30.45 42.0139 30.45L44.3357 32.6629Z" fill="#1A1919"/>
<path fill-rule="evenodd" clip-rule="evenodd" d="M44.6224 33.6L44.4088 33.5938L41.7889 31.1251V32.8744C41.795 33.2544 41.8632 33.3614 42.2509 33.3652H42.3621V33.5347H42.3402C42.1166 33.5347 41.895 33.5172 41.6742 33.5172C41.4428 33.5172 41.2052 33.5347 40.9711 33.5347H40.95V33.3652H41.044C41.3842 33.3643 41.4823 33.1789 41.4864 32.8313V30.9922C41.4862 30.7596 41.2605 30.619 41.0387 30.619H40.95V30.45H40.9711C41.1691 30.45 41.3703 30.467 41.5654 30.467C41.7186 30.467 41.8669 30.45 42.042 30.4567L44.3103 32.6162V31.0106C44.3086 30.6639 44.0336 30.6218 43.883 30.619H43.747V30.45H43.7706C44.0131 30.45 44.2513 30.467 44.4919 30.467C44.7031 30.467 44.9138 30.45 45.1283 30.45H45.15V30.619H45.0504C44.8375 30.6236 44.6179 30.6401 44.6136 31.1543V33.1404C44.6136 33.2933 44.6177 33.4456 44.6427 33.5785L44.6472 33.6H44.6224ZM44.4258 33.5619H44.595C44.5732 33.4306 44.5681 33.2857 44.5681 33.1404V31.1543C44.5681 30.6296 44.8288 30.5818 45.0504 30.5807H45.1062V30.4878C44.9013 30.4891 44.6982 30.505 44.4919 30.505C44.2568 30.505 44.026 30.4891 43.7923 30.4878V30.5807H43.883C44.0424 30.5818 44.3541 30.6415 44.3541 31.0106L44.3486 32.6608L44.3387 32.6692L44.3222 32.6836L42.0248 30.4878C41.872 30.4878 41.7217 30.505 41.5654 30.505C41.375 30.505 41.1812 30.4891 40.9934 30.4878V30.5807H41.0387C41.2814 30.5818 41.5308 30.7366 41.5308 30.9922V32.8313C41.5308 33.1806 41.4155 33.4037 41.044 33.4048L40.9934 33.4045V33.4972C41.2175 33.4959 41.4473 33.4798 41.6742 33.4798C41.8896 33.4798 42.1035 33.4959 42.3175 33.4972V33.4048H42.2509C41.8458 33.4045 41.7442 33.2544 41.7442 32.8744V31.0266L44.4258 33.5619Z" fill="#1A1919"/>
<path fill-rule="evenodd" clip-rule="evenodd" d="M45.6456 32.9771C45.6161 33.1247 45.5798 33.2392 45.5798 33.3165C45.5798 33.4476 45.7066 33.4692 45.8052 33.4692H45.8388V33.6C45.7183 33.5906 45.5949 33.5831 45.4744 33.5831C45.3661 33.5831 45.2579 33.5906 45.15 33.6V33.4692H45.1671C45.2851 33.4692 45.3847 33.3688 45.4287 33.1857L45.9111 31.1869C45.9499 31.0253 46.0044 30.8076 46.0217 30.646C46.1184 30.5984 46.2384 30.5118 46.2964 30.4589C46.3048 30.4544 46.3108 30.45 46.3202 30.45C46.3289 30.45 46.3346 30.45 46.3408 30.4636C46.3499 30.4981 46.3589 30.5373 46.368 30.5721L46.9216 32.8508C46.9575 33.0029 46.9938 33.164 47.0331 33.2954C47.0692 33.4176 47.1323 33.4692 47.2315 33.4692H47.25V33.6C47.1144 33.5906 46.9789 33.5831 46.8344 33.5831C46.6872 33.5831 46.5365 33.5906 46.3829 33.6V33.4692H46.4163C46.4851 33.4692 46.6031 33.4519 46.6031 33.3429C46.6031 33.2867 46.5761 33.1689 46.5425 33.0289L46.4252 32.5238H45.7423L45.6456 32.9771ZM46.0856 31.0472H46.0795L45.799 32.2801H46.3625L46.0856 31.0472Z" fill="#1A1919"/>
<path fill-rule="evenodd" clip-rule="evenodd" d="M47.2366 33.599C47.1026 33.5913 46.9692 33.5817 46.8274 33.5817C46.6823 33.5817 46.5333 33.5913 46.3819 33.599L46.3687 33.6V33.4326H46.4139C46.483 33.4326 46.5854 33.4095 46.5855 33.3266C46.5863 33.2775 46.5594 33.1601 46.526 33.0227L46.4133 32.5357H45.757L45.6652 32.9707C45.6352 33.1182 45.6001 33.2308 45.6005 33.3005C45.6005 33.4059 45.712 33.4326 45.8102 33.4326H45.8557V33.6L45.8423 33.599C45.7236 33.5913 45.6018 33.5817 45.4834 33.5817C45.3769 33.5817 45.2702 33.5913 45.163 33.599L45.15 33.6V33.4326H45.1798C45.2907 33.4318 45.3834 33.3399 45.427 33.1653L45.9024 31.1896C45.9405 31.0303 45.9942 30.8162 46.0203 30.6448C46.1137 30.5979 46.2331 30.5115 46.2909 30.4596C46.2986 30.4553 46.3069 30.4501 46.3191 30.4501C46.3267 30.4491 46.3424 30.4519 46.3515 30.4754C46.3605 30.5093 46.3693 30.5484 46.3789 30.5831L46.9256 32.8342C46.9614 32.9849 46.9968 33.1439 47.0354 33.2723C47.0704 33.3862 47.1242 33.4315 47.2193 33.4326H47.25V33.6L47.2366 33.599ZM46.3939 33.561C46.541 33.5532 46.6856 33.5449 46.8274 33.5449C46.9656 33.5449 47.0949 33.5532 47.2246 33.5607L47.2243 33.4706H47.2193C47.1186 33.4709 47.0485 33.4136 47.0114 33.2866C46.9722 33.1566 46.9369 32.9968 46.9012 32.8466L46.3542 30.5948C46.3454 30.5604 46.336 30.522 46.329 30.4921C46.3265 30.4871 46.3267 30.4871 46.3249 30.4871H46.3191C46.3127 30.4871 46.3094 30.49 46.3023 30.493C46.2441 30.5456 46.1252 30.6319 46.0374 30.6647C46.019 30.8278 45.965 31.0425 45.9267 31.2023L45.4506 33.1775C45.4054 33.3645 45.3015 33.4709 45.1798 33.4706H45.1755V33.5607C45.2779 33.5532 45.38 33.5449 45.4834 33.5449C45.5986 33.5449 45.7162 33.5532 45.8304 33.5607V33.4706H45.8102C45.7136 33.4686 45.5781 33.4538 45.5743 33.3005C45.575 33.2154 45.6116 33.1056 45.6408 32.9598L45.6527 32.9652L45.6408 32.9593L45.7385 32.4994H46.4315L46.5509 33.0105C46.5836 33.149 46.6108 33.2637 46.6108 33.3266C46.6065 33.4584 46.4815 33.4681 46.4139 33.4706H46.3939V33.561ZM45.7865 32.2949L46.072 31.0393H46.0874V31.0583L46.084 31.0596L46.0874 31.0583V31.0393H46.0964L46.3775 32.2949H45.7865ZM45.8224 32.2574H46.3425L46.0839 31.1047L45.8224 32.2574Z" fill="#1A1919"/>
<path fill-rule="evenodd" clip-rule="evenodd" d="M49.107 33.1574C49.107 33.3388 49.2103 33.3922 49.3296 33.411C49.4817 33.4245 49.6491 33.4245 49.8207 33.4015C49.9766 33.3787 50.1104 33.2711 50.1771 33.1574C50.2362 33.0583 50.2697 32.9319 50.2925 32.8328H50.4C50.359 33.0901 50.3071 33.343 50.2625 33.6C49.9361 33.6 49.6079 33.5825 49.2813 33.5825C48.9539 33.5825 48.627 33.6 48.3 33.6V33.4643H48.3515C48.4856 33.4643 48.6311 33.4421 48.6311 33.1623V30.8432C48.6311 30.608 48.4856 30.5854 48.3515 30.5854H48.3V30.45C48.4967 30.45 48.6903 30.4679 48.887 30.4679C49.077 30.4679 49.2625 30.45 49.4526 30.45V30.5854H49.3591C49.2179 30.5854 49.107 30.5902 49.107 30.8293V33.1574Z" fill="#1A1919"/>
<path fill-rule="evenodd" clip-rule="evenodd" d="M50.1686 33.6C49.6851 33.6 49.2022 33.5821 48.7213 33.5821C48.2391 33.5821 47.7566 33.6 47.273 33.6H47.25V33.4277H47.35C47.5482 33.4238 47.7364 33.4125 47.7387 33.1486V30.8569C47.7364 30.6399 47.549 30.6254 47.35 30.6226H47.25V30.45H47.273C47.565 30.45 47.8504 30.4673 48.1394 30.4673C48.4186 30.4673 48.6917 30.45 48.9739 30.45H48.9959V30.6226H48.8361C48.6234 30.6269 48.4914 30.6192 48.4866 30.8441V33.1437C48.4881 33.3104 48.6224 33.355 48.7938 33.3749C48.8903 33.3803 48.9924 33.3831 49.0978 33.3831C49.2318 33.3831 49.3711 33.3781 49.5128 33.3659C49.7361 33.3443 49.9283 33.2394 50.0231 33.1331C50.1078 33.0377 50.1555 32.9156 50.1887 32.8186L50.1933 32.8039H50.4L50.3952 32.8273C50.3332 33.0821 50.2576 33.3308 50.1912 33.5849L50.1869 33.6H50.1686ZM50.1485 33.5615C50.212 33.3194 50.2836 33.0826 50.3429 32.8422H50.2298C50.1962 32.9392 50.1472 33.0588 50.0613 33.1559C49.9588 33.2713 49.7558 33.3803 49.518 33.4042C49.3746 33.416 49.2321 33.4221 49.0978 33.4221C48.9915 33.4221 48.889 33.4182 48.7892 33.4125C48.6109 33.3966 48.4385 33.3344 48.4387 33.1437V30.8441C48.4387 30.5962 48.6315 30.5834 48.8361 30.5834H48.949V30.4886C48.679 30.4899 48.4123 30.5066 48.1394 30.5066C47.8562 30.5066 47.5783 30.4899 47.2977 30.4886V30.5834H47.35C47.5455 30.5834 47.7848 30.6113 47.7848 30.8569V33.1486C47.7848 33.4371 47.5466 33.467 47.35 33.467H47.2977V33.5615C47.7713 33.5606 48.2453 33.5439 48.7213 33.5439C49.198 33.5439 49.6739 33.5606 50.1485 33.5615Z" fill="#1A1919"/>
<path fill-rule="evenodd" clip-rule="evenodd" d="M49.8748 30.45C50.1756 30.45 50.4 30.681 50.4 30.9763C50.4 31.2713 50.1756 31.5 49.8748 31.5C49.5747 31.5 49.35 31.2713 49.35 30.9763C49.35 30.681 49.5747 30.45 49.8748 30.45ZM49.8748 31.4024C50.1103 31.4024 50.2901 31.2021 50.2901 30.9763C50.2901 30.7501 50.1124 30.5483 49.8748 30.5483C49.6385 30.5483 49.4589 30.7501 49.4589 30.9763C49.4589 31.2021 49.6385 31.4024 49.8748 31.4024ZM49.6138 31.2532V31.2277C49.678 31.2185 49.69 31.2202 49.69 31.1809V30.7916C49.69 30.7369 49.6846 30.718 49.6159 30.721V30.6942H49.8846C49.9769 30.6942 50.062 30.7384 50.062 30.8339C50.062 30.9119 50.0107 30.9699 49.9378 30.9923L50.0242 31.1128C50.0644 31.1671 50.1103 31.2185 50.1397 31.2366V31.2532H50.0376C49.9886 31.2532 49.9452 31.1501 49.8489 31.0118H49.7908V31.1858C49.7908 31.2202 49.8029 31.2185 49.8674 31.2277V31.2532H49.6138ZM49.7908 30.9763H49.8527C49.9205 30.9763 49.9518 30.9251 49.9518 30.8422C49.9518 30.7588 49.9035 30.7292 49.8493 30.7292H49.7908V30.9763Z" fill="#1A1919"/>
<path fill-rule="evenodd" clip-rule="evenodd" d="M24.15 15.7498C24.15 11.6906 27.2057 8.3999 30.9749 8.3999C34.7444 8.3999 37.8 11.6906 37.8 15.7498C37.8 19.8091 34.7444 23.0999 30.9749 23.0999C27.2057 23.0999 24.15 19.8091 24.15 15.7498Z" fill="#FFFFFE"/>
<path fill-rule="evenodd" clip-rule="evenodd" d="M35.3761 15.7372C35.3731 13.9199 34.1808 12.37 32.5008 11.7562V19.7178C34.1808 19.1032 35.3731 17.5548 35.3761 15.7372ZM29.2958 19.7162V11.757C27.6172 12.3727 26.4268 13.9204 26.4223 15.7372C26.4268 17.5535 27.6172 19.101 29.2958 19.7162ZM30.8991 9.00783C26.9983 9.00925 23.838 12.0208 23.8373 15.7372C23.838 19.4531 26.9983 22.4641 30.8991 22.4648C34.7999 22.4641 37.9609 19.4531 37.9619 15.7372C37.9609 12.0208 34.7999 9.00925 30.8991 9.00783ZM30.8818 23.0998C26.6132 23.1192 23.1 19.8245 23.1 15.8139C23.1 11.4308 26.6132 8.39911 30.8818 8.3999H32.8821C37.1003 8.39911 40.95 11.4294 40.95 15.8139C40.95 19.8231 37.1003 23.0998 32.8821 23.0998H30.8818Z" fill="#184977"/>
</g>
</svg>
