<svg width="63" height="42" viewBox="0 0 63 42" fill="none" xmlns="http://www.w3.org/2000/svg">
<rect width="63" height="42" rx="4" fill="white"/>
<path fill-rule="evenodd" clip-rule="evenodd" d="M6.29999 36.75H56.7V32.55H6.29999V36.75Z" fill="#F1AD2B"/>
<path fill-rule="evenodd" clip-rule="evenodd" d="M6.29999 10.5H56.7V6.30005H6.29999V10.5Z" fill="#182E66"/>
<path fill-rule="evenodd" clip-rule="evenodd" d="M30.7859 15.9912L28.1904 29.1927H25.051L27.6468 15.9912H30.7859ZM43.9931 24.5158L45.6457 19.5579L46.5963 24.5158H43.9931ZM47.4974 29.1927H50.4L47.8639 15.9912H45.1863C44.5826 15.9912 44.0742 16.3719 43.849 16.9589L39.1383 29.1927H42.4354L43.0898 27.2213H47.1168L47.4974 29.1927ZM39.302 24.8829C39.3157 21.399 34.8751 21.2058 34.9046 19.649C34.9142 19.1759 35.3288 18.6723 36.2358 18.5435C36.6853 18.4804 37.9257 18.4293 39.332 19.1341L39.8819 16.3334C39.1263 16.0363 38.1545 15.75 36.9454 15.75C33.8419 15.75 31.6586 17.5434 31.6412 20.1136C31.6214 22.0143 33.201 23.0741 34.3883 23.7071C35.6125 24.3539 36.0228 24.769 36.017 25.3471C36.0085 26.2327 35.0404 26.625 34.1395 26.6396C32.5602 26.6666 31.645 26.1755 30.9153 25.8053L30.3456 28.6996C31.0802 29.0652 32.434 29.3838 33.8356 29.4C37.1348 29.4 39.2923 27.6277 39.302 24.8829ZM26.3002 15.9912L21.2137 29.1927H17.8956L15.3923 18.6569C15.2407 18.0093 15.1084 17.771 14.6469 17.4975C13.892 17.051 12.6456 16.6339 11.55 16.3745L11.624 15.9912H16.966C17.6466 15.9912 18.2585 16.4838 18.4142 17.3366L19.7365 24.9763L23.0022 15.9912H26.3002Z" fill="#182E66"/>
</svg>
