<svg width="48" height="48" viewBox="0 0 48 48" fill="none" xmlns="http://www.w3.org/2000/svg">
<path fill-rule="evenodd" clip-rule="evenodd" d="M39.6549 8.35874C35.6413 4.3587 30.1132 1.87328 24 1.87328C17.9004 1.87328 12.3591 4.3587 8.35914 8.35874C4.35914 12.3588 1.87423 17.887 1.87423 24.0002C1.87423 30.1135 4.35914 35.6412 8.35914 39.6548C12.3591 43.6549 17.9004 46.1267 24 46.1267C30.1132 46.1267 35.6413 43.6549 39.6549 39.6548C43.6549 35.6412 46.1263 30.1135 46.1263 24.0002C46.1263 17.887 43.6549 12.3588 39.6549 8.35874ZM24 0C30.6313 0 36.6378 2.68414 40.9703 7.03024C45.3159 11.3759 48 17.3689 48 24.0002C48 30.6311 45.3159 36.6246 40.9703 40.9702C36.6378 45.3159 30.6313 48 24 48C17.3823 48 11.3762 45.3159 7.03017 40.9702C2.6846 36.6246 0 30.6311 0 24.0002C0 17.3689 2.6846 11.3759 7.03017 7.03024C11.3762 2.68414 17.3823 0 24 0Z" fill="#517FA4"/>
<path fill-rule="evenodd" clip-rule="evenodd" d="M31.7609 23.9998C31.7609 19.7206 28.2925 16.2392 23.9998 16.2392C19.7206 16.2392 16.2392 19.7206 16.2392 23.9998C16.2392 28.2921 19.7206 31.7604 23.9998 31.7604C28.2925 31.7604 31.7609 28.2921 31.7609 23.9998ZM31.6145 15.1889C30.9238 15.1889 30.3655 15.7473 30.3655 16.4379C30.3655 17.1291 30.9238 17.6874 31.6145 17.6874C32.3056 17.6874 32.864 17.1291 32.864 16.4379C32.864 15.7473 32.3056 15.1889 31.6145 15.1889ZM17.6613 13.3952H30.3524C32.7045 13.3952 34.618 15.3087 34.618 17.6613V30.3519C34.618 32.704 32.7045 34.6175 30.3524 34.6175H17.6613C15.3087 34.6175 13.3957 32.704 13.3957 30.3519V17.6613C13.3957 15.3087 15.3087 13.3952 17.6613 13.3952ZM30.3524 11.9731H17.6613C14.5385 11.9731 11.9736 14.5245 11.9736 17.6613V30.3519C11.9736 33.4747 14.5385 36.0396 17.6613 36.0396H30.3524C33.4887 36.0396 36.04 33.4747 36.04 30.3519V17.6613C36.04 14.5245 33.4887 11.9731 30.3524 11.9731ZM17.8605 23.9998C17.8605 20.611 20.6115 17.8469 23.9998 17.8469C27.4022 17.8469 30.1527 20.611 30.1527 23.9998C30.1527 27.4012 27.4022 30.1527 23.9998 30.1527C20.6115 30.1527 17.8605 27.4012 17.8605 23.9998Z" fill="#517FA4"/>
</svg>
