<svg width="24" height="24" viewBox="0 0 24 24" fill="none" xmlns="http://www.w3.org/2000/svg">
<mask id="mask0" mask-type="alpha" maskUnits="userSpaceOnUse" x="2" y="2" width="21" height="20">
<path fill-rule="evenodd" clip-rule="evenodd" d="M18.3 11.97C17.96 12.59 17.3 13 16.55 13H9.1L8 15H20V17H8C6.48 17 5.52 15.37 6.25 14.03L7.6 11.59L4 4H2V2H5.27L6.21 4H21.01C21.77 4 22.25 4.82 21.88 5.48L18.3 11.97ZM19.31 6H7.16L9.53 11H16.55L19.31 6ZM8 18C6.9 18 6.01 18.9 6.01 20C6.01 21.1 6.9 22 8 22C9.1 22 10 21.1 10 20C10 18.9 9.1 18 8 18ZM16.01 20C16.01 18.9 16.9 18 18 18C19.1 18 20 18.9 20 20C20 21.1 19.1 22 18 22C16.9 22 16.01 21.1 16.01 20Z" fill="white"/>
</mask>
<g mask="url(#mask0)">
<rect width="24" height="24" fill="white"/>
</g>
</svg>
