<svg width="48" height="48" viewBox="0 0 48 48" fill="none" xmlns="http://www.w3.org/2000/svg">
<path fill-rule="evenodd" clip-rule="evenodd" d="M39.6548 8.35874C35.6412 4.3587 30.113 1.87328 23.9998 1.87328C17.8875 1.87328 12.3588 4.3587 8.35874 8.35874C4.35822 12.3588 1.87328 17.887 1.87328 24.0002C1.87328 30.1135 4.35822 35.6412 8.35874 39.6548C12.3588 43.6549 17.8875 46.1267 23.9998 46.1267C30.113 46.1267 35.6412 43.6549 39.6548 39.6548C43.6549 35.6412 46.1267 30.1135 46.1267 24.0002C46.1267 17.887 43.6549 12.3588 39.6548 8.35874ZM23.9998 0C30.6311 0 36.6246 2.68414 40.9702 7.03024C45.3159 11.3759 48 17.3689 48 24.0002C48 30.6311 45.3159 36.6246 40.9702 40.9702C36.6246 45.3159 30.6311 48 23.9998 48C17.3689 48 11.3754 45.3159 7.02976 40.9702C2.68414 36.6246 0 30.6311 0 24.0002C0 17.3689 2.68414 11.3759 7.02976 7.03024C11.3754 2.68414 17.3689 0 23.9998 0Z" fill="#3B5998"/>
<path fill-rule="evenodd" clip-rule="evenodd" d="M25.8339 19.0963V17.1295C25.8339 16.1863 26.4587 15.9605 26.9109 15.9605C27.349 15.9605 29.6614 15.9605 29.6614 15.9605V11.7607H25.8741C21.6613 11.7607 20.7177 14.8704 20.7177 16.8906V19.0963H18.2725V24.0003H20.7443C20.7443 29.5683 20.7443 36.2529 20.7443 36.2529H25.6483C25.6483 36.2529 25.6483 29.4752 25.6483 24.0003H29.2761L29.4355 22.0732L29.7278 19.0963H25.8339Z" fill="#3B5998"/>
</svg>
