<svg width="16" height="16" viewBox="0 0 16 16" fill="none" xmlns="http://www.w3.org/2000/svg">
<path d="M7.33331 4.66668H8.66665V6.00001H7.33331V4.66668ZM7.33331 7.33334H8.66665V11.3333H7.33331V7.33334ZM7.99998 1.33334C4.31998 1.33334 1.33331 4.32001 1.33331 8.00001C1.33331 11.68 4.31998 14.6667 7.99998 14.6667C11.68 14.6667 14.6666 11.68 14.6666 8.00001C14.6666 4.32001 11.68 1.33334 7.99998 1.33334ZM7.99998 13.3333C5.05998 13.3333 2.66665 10.94 2.66665 8.00001C2.66665 5.06001 5.05998 2.66668 7.99998 2.66668C10.94 2.66668 13.3333 5.06001 13.3333 8.00001C13.3333 10.94 10.94 13.3333 7.99998 13.3333Z" fill="black"/>
</svg>
