<svg width="144" height="16" viewBox="0 0 144 16" fill="none" xmlns="http://www.w3.org/2000/svg">
<path d="M15.7991 0H12.5625V15.9732H15.7991V0Z" fill="#00171E"/>
<path fill-rule="evenodd" clip-rule="evenodd" d="M27.0723 5.97656C26.606 5.33335 25.9751 4.82413 25.262 4.44892C24.5214 4.04691 23.6437 3.88611 22.6288 3.88611H22.4917C21.6414 3.91291 20.9008 4.07371 20.1877 4.36852C19.4471 4.66333 18.8163 5.09214 18.2951 5.62815C17.774 6.19097 17.3351 6.80738 17.0608 7.5578C16.7866 8.28142 16.6494 9.08544 16.6494 9.94306C16.6494 10.8275 16.7866 11.6315 17.0608 12.3819C17.3351 13.1323 17.7191 13.7756 18.2403 14.2848C18.734 14.8208 19.3923 15.2228 20.1054 15.5176C20.8186 15.7856 21.5865 15.9196 22.4643 15.9196H22.6014C23.9454 15.9196 25.07 15.6248 26.0025 15.0352C26.9625 14.4724 27.6483 13.4539 28.1145 12.0871H25.2894C25.1797 12.4355 24.878 12.7839 24.4117 13.1055C23.9454 13.4271 23.3694 13.588 22.7385 13.588H22.4643C21.6688 13.5611 21.0654 13.3199 20.6266 12.8911C20.1328 12.4355 19.886 11.6851 19.8311 10.6935H28.3065C28.3614 9.80906 28.2791 8.95144 28.0871 8.12062C27.8951 7.3434 27.566 6.59298 27.0723 5.97656ZM19.886 8.68343C19.886 8.46903 19.9408 8.20102 20.0231 7.93301C20.1054 7.665 20.2426 7.3702 20.4346 7.12899C20.654 6.86098 20.9283 6.67338 21.2574 6.48577C21.5865 6.32497 21.998 6.24457 22.4917 6.21777H22.5465C23.3145 6.21777 23.918 6.43217 24.302 6.86098C24.686 7.26299 24.9603 7.87941 25.0974 8.68343H19.886Z" fill="#00171E"/>
<path fill-rule="evenodd" clip-rule="evenodd" d="M32.448 0H29.2114C29.2114 4.42211 29.2114 8.81742 29.2114 13.2395C29.2114 13.8024 29.3211 14.2848 29.5131 14.6332C29.7051 14.9816 29.9794 15.2764 30.3086 15.464C30.6377 15.6516 31.0217 15.7856 31.488 15.8392C31.9269 15.9196 32.4206 15.9464 32.9143 15.9464C33.216 15.9464 33.5726 15.9196 33.8743 15.9196C34.2034 15.9196 34.5051 15.8928 34.7794 15.8392V13.4003C34.6423 13.4271 34.4777 13.4539 34.2857 13.4539C34.1211 13.4807 33.9291 13.4807 33.7646 13.4807C33.216 13.4807 32.8594 13.4003 32.6674 13.2127C32.4754 13.0251 32.3931 12.6767 32.3931 12.1407V6.45896H34.752V4.34171H32.3931V0H32.448Z" fill="#00171E"/>
<path fill-rule="evenodd" clip-rule="evenodd" d="M41.3075 4.34172C40.9509 4.44892 40.5944 4.60973 40.2378 4.82413C39.9086 5.03854 39.6069 5.30654 39.3601 5.60135C39.0858 5.89616 38.8938 6.24457 38.7567 6.59298H38.7292V4.47572H35.6572V15.9732H38.8938V10.7739C38.8938 10.2647 38.9212 9.75545 39.0309 9.32664C39.1407 8.87103 39.3327 8.49582 39.5795 8.17421C39.8264 7.82581 40.1555 7.5578 40.5669 7.397C40.9784 7.20939 41.4721 7.10219 42.0481 7.10219C42.2401 7.10219 42.4595 7.12899 42.6789 7.12899C42.8709 7.15579 43.0629 7.15579 43.2275 7.20939V4.26132C42.9532 4.18092 42.7338 4.15411 42.5144 4.15411C42.0755 4.18091 41.6915 4.20771 41.3075 4.34172Z" fill="#00171E"/>
<path fill-rule="evenodd" clip-rule="evenodd" d="M53.3484 5.54775C52.7998 5.01174 52.169 4.60973 51.4284 4.31492C50.6878 4.02011 49.8375 3.88611 48.9324 3.88611H48.905C47.9724 3.88611 47.177 4.02011 46.409 4.31492C45.6958 4.58293 45.0375 5.01174 44.5164 5.54775C43.9678 6.05696 43.5564 6.70018 43.2821 7.4506C43.0078 8.17422 42.8433 9.03184 42.8433 9.94306C42.8433 10.8811 43.0078 11.6851 43.2821 12.4355C43.5564 13.1859 43.9678 13.8292 44.5164 14.3384C45.0375 14.8476 45.6958 15.2764 46.409 15.5444C47.1495 15.8124 47.9724 15.9732 48.905 15.9732C48.905 15.9732 48.905 15.9464 48.9324 15.9464C49.8375 15.9464 50.6878 15.8124 51.4284 15.5444C52.169 15.2764 52.7998 14.8476 53.3484 14.3384C53.8695 13.8024 54.281 13.1859 54.5827 12.4355C54.857 11.7119 54.9941 10.8811 54.9941 9.94306C54.9941 9.03184 54.857 8.20102 54.5827 7.4506C54.281 6.70018 53.8695 6.05696 53.3484 5.54775ZM51.6204 11.2831C51.5381 11.7119 51.3735 12.1407 51.1541 12.4623C50.9347 12.8107 50.6604 13.1055 50.2764 13.2931C49.9198 13.5076 49.4535 13.6148 48.9324 13.6148H48.905C48.3564 13.6148 47.9175 13.5076 47.561 13.2931C47.2044 13.1055 46.9027 12.8107 46.6833 12.4623C46.4638 12.1139 46.3267 11.7119 46.217 11.2831C46.1347 10.8543 46.0798 10.3987 46.0798 9.94306C46.0798 9.48745 46.1347 9.03184 46.217 8.60303C46.3267 8.14742 46.4638 7.7454 46.6833 7.4238C46.9027 7.07539 47.177 6.78058 47.561 6.59298C47.9175 6.37857 48.3564 6.24457 48.905 6.24457H48.9324C49.4535 6.24457 49.9198 6.35177 50.2764 6.59298C50.6604 6.78058 50.9347 7.07539 51.1541 7.4238C51.3735 7.7722 51.5381 8.14742 51.6204 8.60303C51.7301 9.03184 51.7575 9.48745 51.7575 9.94306C51.7575 10.3987 51.7301 10.8543 51.6204 11.2831Z" fill="#00171E"/>
<path fill-rule="evenodd" clip-rule="evenodd" d="M64.9785 9.72866C64.6219 9.46065 64.2379 9.27305 63.7991 9.13904C63.3602 8.97824 62.8939 8.87103 62.4277 8.76383C61.9614 8.65663 61.5225 8.54943 61.0837 8.46903C60.6448 8.36182 60.2608 8.28142 59.9042 8.17422C59.5477 8.06701 59.3008 7.90621 59.0814 7.74541C58.8894 7.5578 58.7797 7.3434 58.7797 7.04859C58.7797 6.80738 58.8071 6.64658 58.9717 6.48577C59.0814 6.35177 59.2459 6.24457 59.3831 6.16417C59.5751 6.08376 59.7397 6.05696 59.9591 6.03016C60.1785 6.00336 60.3705 6.00336 60.5351 6.00336C61.1111 6.00336 61.6322 6.11057 62.0437 6.32497C62.4551 6.53938 62.7019 6.96819 62.7568 7.5578H65.8288C65.7739 6.86098 65.5545 6.24457 65.2528 5.78896C64.9511 5.33335 64.5396 4.93134 64.0734 4.66333C63.6071 4.39532 63.0859 4.18091 62.4825 4.07371C61.8791 3.96651 61.2757 3.88611 60.6174 3.88611C59.9591 3.88611 59.3557 3.93971 58.7522 4.04691C58.1488 4.15412 57.6002 4.36852 57.1065 4.63653C56.6128 4.90453 56.2288 5.27975 55.9271 5.73536C55.6254 6.21777 55.4882 6.80738 55.4882 7.5578C55.4882 8.04021 55.598 8.49582 55.79 8.84423C56.0094 9.19264 56.2837 9.48745 56.6402 9.70185C56.9968 9.94306 57.3808 10.1039 57.8197 10.2647C58.2585 10.3987 58.7248 10.5327 59.1911 10.6131C60.3431 10.8543 61.2482 11.0955 61.9065 11.3099C62.5648 11.5511 62.8665 11.8995 62.8665 12.3819C62.8665 12.6499 62.7842 12.8911 62.6471 13.1055C62.5374 13.2931 62.3454 13.4271 62.1534 13.5344C61.9614 13.6416 61.7419 13.722 61.4677 13.8024C61.2208 13.856 60.9739 13.8828 60.7545 13.8828C60.4254 13.8828 60.1237 13.856 59.8219 13.7756C59.5477 13.6952 59.2734 13.588 59.0265 13.4271C58.8071 13.2663 58.6151 13.0787 58.4779 12.8107C58.3134 12.5695 58.2585 12.2747 58.2585 11.9531H55.1865C55.214 12.7303 55.3785 13.3467 55.7351 13.856C56.0642 14.3652 56.4482 14.794 56.9694 15.0888C57.4905 15.3836 58.0665 15.6248 58.7248 15.732C59.3831 15.866 60.0414 15.9464 60.7271 15.9464C61.3854 15.9464 62.0437 15.866 62.6745 15.7588C63.3328 15.6516 63.8814 15.4104 64.4025 15.1156C64.8962 14.794 65.3077 14.392 65.6094 13.8828C65.9385 13.3735 66.1031 12.7303 66.1031 11.9799C66.1031 11.4439 65.9934 10.9883 65.7739 10.6399C65.6094 10.2647 65.3351 9.96986 64.9785 9.72866Z" fill="#00171E"/>
<path fill-rule="evenodd" clip-rule="evenodd" d="M76.9915 5.54775C76.4703 5.01174 75.812 4.60973 75.0715 4.31492C74.3309 4.02011 73.4806 3.88611 72.5755 3.88611H72.548C71.6429 3.88611 70.7926 4.02011 70.052 4.31492C69.3115 4.58293 68.6532 5.01174 68.132 5.54775C67.6109 6.05696 67.172 6.70018 66.8978 7.4506C66.6235 8.17422 66.4863 9.03184 66.4863 9.94306C66.4863 10.8811 66.6235 11.6851 66.8978 12.4355C67.172 13.1859 67.6109 13.8292 68.132 14.3384C68.6532 14.8476 69.3115 15.2764 70.052 15.5444C70.7652 15.8124 71.6155 15.9732 72.548 15.9732C72.5755 15.9732 72.5755 15.9464 72.5755 15.9464C73.4806 15.9464 74.3309 15.8124 75.0715 15.5444C75.812 15.2764 76.4703 14.8476 76.9915 14.3384C77.54 13.8024 77.9514 13.1859 78.2257 12.4355C78.5 11.7119 78.6372 10.8811 78.6372 9.94306C78.6372 9.03184 78.5 8.20102 78.2257 7.4506C77.9514 6.70018 77.54 6.05696 76.9915 5.54775ZM75.2909 11.2831C75.1812 11.7119 75.0166 12.1407 74.8246 12.4623C74.6052 12.8107 74.3035 13.1055 73.9469 13.2931C73.5629 13.5076 73.124 13.6148 72.5755 13.6148H72.548C71.9995 13.6148 71.5606 13.5076 71.204 13.2931C70.8475 13.1055 70.5458 12.8107 70.3263 12.4623C70.1069 12.1139 69.9423 11.7119 69.8326 11.2831C69.7503 10.8543 69.7229 10.3987 69.7229 9.94306C69.7229 9.48745 69.7503 9.03184 69.8326 8.60303C69.9423 8.14742 70.1069 7.7454 70.3263 7.4238C70.5183 7.07539 70.82 6.78058 71.204 6.59298C71.5606 6.37857 71.9995 6.24457 72.548 6.24457H72.5755C73.124 6.24457 73.5629 6.35177 73.9469 6.59298C74.3035 6.78058 74.6052 7.07539 74.8246 7.4238C75.0166 7.7722 75.1812 8.14742 75.2909 8.60303C75.3732 9.03184 75.4006 9.48745 75.4006 9.94306C75.428 10.3987 75.3732 10.8543 75.2909 11.2831Z" fill="#00171E"/>
<path fill-rule="evenodd" clip-rule="evenodd" d="M97.1242 6.37857C96.9322 5.84256 96.6305 5.41375 96.2465 5.09214C95.8899 4.74373 95.4236 4.52932 94.9025 4.36852C94.3539 4.20772 93.8053 4.15411 93.1745 4.15411C92.379 4.15411 91.6659 4.34172 91.0625 4.71693C90.459 5.09214 89.9928 5.54775 89.6362 6.03016C89.3345 5.33334 88.8682 4.82413 88.2373 4.55612C87.6339 4.28812 86.9482 4.15411 86.2076 4.15411C85.4396 4.15411 84.7539 4.31492 84.1505 4.63653C83.5745 4.98494 83.0533 5.41375 82.6145 6.03016H82.587V4.47572H79.5425V15.9732H82.7791V9.29984C82.7791 8.73703 82.8613 8.28142 83.0533 7.90621C83.2179 7.5578 83.4099 7.28979 83.6293 7.12899C83.8762 6.94139 84.123 6.80738 84.3425 6.75378C84.6168 6.67338 84.8088 6.64658 84.9459 6.64658C85.467 6.64658 85.851 6.72698 86.1253 6.91458C86.3996 7.07539 86.5916 7.31659 86.7013 7.5846C86.811 7.85261 86.8933 8.17422 86.8933 8.52262C86.9208 8.87103 86.9208 9.16584 86.9208 9.54105V16H90.1573V9.59465C90.1573 9.24624 90.1847 8.89784 90.2396 8.54943C90.2945 8.20102 90.4042 7.87941 90.5688 7.6114C90.7333 7.3434 90.9253 7.12899 91.227 6.96818C91.5287 6.78058 91.8853 6.70018 92.3242 6.70018C92.7905 6.70018 93.147 6.78058 93.4213 6.91458C93.6956 7.04859 93.8876 7.26299 93.9973 7.5042C94.1345 7.7722 94.2167 8.06701 94.2716 8.38862C94.299 8.73703 94.299 9.08544 94.299 9.48745V16H97.5356V8.30822C97.4533 7.531 97.371 6.88778 97.1242 6.37857Z" fill="#00171E"/>
<path fill-rule="evenodd" clip-rule="evenodd" d="M10.4228 5.97656C9.95656 5.33335 9.3257 4.82413 8.61256 4.44892C7.87199 4.04691 6.99427 3.88611 5.97942 3.88611H5.84228C4.99199 3.91291 4.25142 4.07371 3.53828 4.36852C2.82514 4.66333 2.19428 5.09214 1.64571 5.62815C1.12457 6.19097 0.685713 6.80738 0.411428 7.5578C0.137143 8.28142 0 9.08544 0 9.94306C0 10.8275 0.137143 11.6315 0.411428 12.3819C0.685713 13.1323 1.09714 13.7756 1.59085 14.2848C2.08457 14.8208 2.74285 15.2228 3.45599 15.5176C4.16914 15.7856 4.93713 15.9196 5.81485 15.9196C5.84228 15.9196 5.92456 15.9464 5.95199 15.9464C7.29599 15.9464 8.44799 15.6248 9.35313 15.0352C10.3131 14.4724 10.9988 13.454 11.4651 12.0871H8.61256C8.50284 12.4355 8.20113 12.7839 7.73484 13.1055C7.26856 13.4272 6.69256 13.588 6.0617 13.588H5.78742C4.99199 13.5612 4.38856 13.3199 3.94971 12.8911C3.45599 12.4355 3.20914 11.6851 3.15428 10.6935H11.6297C11.6846 9.80906 11.6023 8.95144 11.4103 8.12062C11.2457 7.3434 10.9166 6.59298 10.4228 5.97656ZM3.23657 8.68343C3.23657 8.46903 3.29142 8.20102 3.37371 7.93301C3.45599 7.66501 3.62056 7.3702 3.81256 7.12899C4.00456 6.86098 4.27885 6.67338 4.60799 6.48577C4.93713 6.32497 5.34856 6.24457 5.84228 6.21777H5.89713C6.69256 6.21777 7.26856 6.43217 7.65256 6.86098C8.03656 7.263 8.31084 7.87941 8.44799 8.68343H3.23657Z" fill="#00171E"/>
<path d="M111.963 5.27977C111.415 4.77056 110.647 4.50255 109.659 4.50255C108.946 4.50255 108.343 4.63656 107.794 4.93136C107.273 5.22617 106.834 5.60138 106.478 6.08379C106.121 6.5662 105.847 7.10222 105.682 7.71863C105.49 8.33505 105.408 8.95146 105.408 9.59468C105.408 10.2379 105.49 10.8543 105.682 11.4707C105.874 12.0871 106.121 12.6232 106.478 13.1056C106.834 13.588 107.273 13.9632 107.794 14.258C108.315 14.5528 108.946 14.6868 109.659 14.6868C110.126 14.6868 110.537 14.6064 110.948 14.4188C111.36 14.258 111.716 14.0168 112.018 13.722C112.32 13.4272 112.594 13.052 112.786 12.65C112.978 12.2211 113.115 11.7655 113.17 11.2831H114.651C114.459 12.7304 113.911 13.856 113.033 14.6868C112.155 15.4908 111.031 15.8928 109.659 15.8928C108.727 15.8928 107.931 15.732 107.218 15.3836C106.505 15.062 105.902 14.6064 105.435 14.0168C104.942 13.454 104.585 12.784 104.338 12.0067C104.091 11.2295 103.954 10.4255 103.954 9.56788C103.954 8.71025 104.091 7.87944 104.338 7.12902C104.585 6.3518 104.969 5.70858 105.435 5.11897C105.929 4.55615 106.505 4.10054 107.218 3.75213C107.931 3.40372 108.754 3.24292 109.659 3.24292C110.948 3.24292 112.046 3.59133 112.951 4.26135C113.856 4.93136 114.377 5.97659 114.569 7.34342H113.088C112.896 6.5126 112.512 5.78898 111.963 5.27977Z" fill="#00171E"/>
<path d="M123.374 3.80572C124.087 4.15413 124.69 4.60974 125.157 5.17256C125.65 5.73537 126.007 6.40539 126.254 7.18261C126.501 7.95983 126.638 8.76385 126.638 9.62147C126.638 10.4791 126.501 11.3099 126.254 12.0603C126.007 12.8375 125.623 13.5076 125.157 14.0704C124.663 14.6332 124.087 15.0888 123.374 15.4372C122.661 15.7588 121.838 15.9464 120.933 15.9464C120 15.9464 119.205 15.7856 118.492 15.4372C117.778 15.1156 117.175 14.66 116.709 14.0704C116.215 13.5076 115.858 12.8375 115.612 12.0603C115.365 11.2831 115.228 10.4791 115.228 9.62147C115.228 8.76385 115.365 7.93302 115.612 7.18261C115.858 6.40539 116.242 5.76217 116.709 5.17256C117.202 4.60974 117.778 4.15413 118.492 3.80572C119.205 3.45731 120.028 3.29651 120.933 3.29651C121.838 3.29651 122.661 3.45731 123.374 3.80572ZM119.068 4.95815C118.546 5.25296 118.108 5.62817 117.751 6.11058C117.394 6.59299 117.12 7.12901 116.956 7.74542C116.764 8.36184 116.681 8.97825 116.681 9.62147C116.681 10.2647 116.764 10.8811 116.956 11.4975C117.148 12.1139 117.394 12.6499 117.751 13.1324C118.108 13.6148 118.546 13.99 119.068 14.2848C119.589 14.5796 120.22 14.7136 120.933 14.7136C121.646 14.7136 122.249 14.5796 122.798 14.2848C123.319 13.99 123.758 13.6148 124.114 13.1324C124.471 12.6499 124.745 12.1139 124.91 11.4975C125.102 10.8811 125.184 10.2647 125.184 9.62147C125.184 8.97825 125.102 8.36184 124.91 7.74542C124.718 7.12901 124.471 6.59299 124.114 6.11058C123.758 5.62817 123.319 5.25296 122.798 4.95815C122.277 4.66334 121.646 4.52934 120.933 4.52934C120.22 4.52934 119.589 4.66334 119.068 4.95815Z" fill="#00171E"/>
<path d="M128.668 3.91292V5.92297H128.75C129.134 5.17256 129.655 4.60974 130.286 4.18093C130.917 3.75212 131.74 3.56451 132.7 3.56451C133.495 3.56451 134.208 3.75212 134.867 4.15413C135.525 4.52934 135.936 5.11895 136.156 5.92297C136.512 5.14575 137.033 4.55614 137.747 4.15413C138.46 3.77892 139.2 3.56451 139.996 3.56451C142.656 3.56451 144 4.95815 144 7.77222V15.8928H142.519V7.85262C142.519 6.861 142.3 6.11058 141.888 5.60137C141.477 5.09215 140.736 4.82414 139.667 4.82414C139.036 4.82414 138.487 4.93135 138.076 5.17255C137.664 5.41376 137.308 5.73537 137.061 6.13738C136.814 6.53939 136.622 6.995 136.54 7.50421C136.43 8.01342 136.375 8.54944 136.375 9.11225V15.8928H134.894V7.77222C134.894 7.37021 134.839 6.995 134.757 6.61979C134.675 6.24458 134.537 5.94977 134.345 5.68177C134.153 5.41376 133.879 5.19936 133.55 5.03855C133.221 4.87775 132.837 4.79735 132.343 4.79735C131.712 4.79735 131.164 4.90455 130.725 5.14575C130.259 5.36016 129.902 5.68177 129.6 6.08378C129.299 6.48579 129.107 6.9414 128.942 7.47741C128.805 8.01343 128.723 8.60304 128.723 9.21946V15.8928H127.324V3.93972H128.668V3.91292Z" fill="#00171E"/>
<path d="M102.308 12.7036H99.0718V15.866H102.308V12.7036Z" fill="#F2CB12"/>
</svg>
