<svg width="120" height="46" viewBox="0 0 120 46" fill="none" xmlns="http://www.w3.org/2000/svg">
<g filter="url(#filter0_ddd)">
<rect x="3" y="2" width="114" height="40" rx="2" fill="#4267B2"/>
</g>
<g clip-path="url(#clip0)">
<path d="M16 13H30C30.5304 13 31.0391 13.2107 31.4142 13.5858C31.7893 13.9609 32 14.4696 32 15V29C32 29.5304 31.7893 30.0391 31.4142 30.4142C31.0391 30.7893 30.5304 31 30 31H16C15.4696 31 14.9609 30.7893 14.5858 30.4142C14.2107 30.0391 14 29.5304 14 29V15C14 14.4696 14.2107 13.9609 14.5858 13.5858C14.9609 13.2107 15.4696 13 16 13ZM29 15H26.5C25.5717 15 24.6815 15.3687 24.0251 16.0251C23.3687 16.6815 23 17.5717 23 18.5V21H21V24H23V31H26V24H29V21H26V19C26 18.7348 26.1054 18.4804 26.2929 18.2929C26.4804 18.1054 26.7348 18 27 18H29V15Z" fill="white"/>
</g>
<path d="M54.2314 22.7822H50.2256V27H48.4961V17.0469H54.8193V18.4414H50.2256V21.4014H54.2314V22.7822ZM60.2197 27C60.1468 26.8587 60.083 26.6286 60.0283 26.3096C59.4997 26.861 58.8525 27.1367 58.0869 27.1367C57.3441 27.1367 56.738 26.9248 56.2686 26.501C55.7992 26.0771 55.5645 25.5531 55.5645 24.9287C55.5645 24.1403 55.8561 23.5365 56.4395 23.1172C57.0273 22.6934 57.8659 22.4814 58.9551 22.4814H59.9736V21.9961C59.9736 21.6133 59.8665 21.3079 59.6523 21.0801C59.4382 20.8477 59.1123 20.7314 58.6748 20.7314C58.2965 20.7314 57.9867 20.8271 57.7451 21.0186C57.5036 21.2054 57.3828 21.4447 57.3828 21.7363H55.7217C55.7217 21.3307 55.8561 20.9525 56.125 20.6016C56.3939 20.2461 56.7585 19.9681 57.2188 19.7676C57.6836 19.5671 58.2008 19.4668 58.7705 19.4668C59.6364 19.4668 60.3268 19.6855 60.8418 20.123C61.3568 20.556 61.6211 21.1667 61.6348 21.9551V25.291C61.6348 25.9564 61.7282 26.4873 61.915 26.8838V27H60.2197ZM58.3945 25.8037C58.7227 25.8037 59.0303 25.724 59.3174 25.5645C59.609 25.4049 59.8278 25.1908 59.9736 24.9219V23.5273H59.0781C58.4629 23.5273 58.0003 23.6344 57.6904 23.8486C57.3805 24.0628 57.2256 24.3659 57.2256 24.7578C57.2256 25.0768 57.3304 25.332 57.54 25.5234C57.7542 25.7103 58.0391 25.8037 58.3945 25.8037ZM66.4131 25.8105C66.8278 25.8105 67.1719 25.6898 67.4453 25.4482C67.7188 25.2067 67.8646 24.9082 67.8828 24.5527H69.4482C69.43 25.013 69.2865 25.4437 69.0176 25.8447C68.7487 26.2412 68.3841 26.5557 67.9238 26.7881C67.4635 27.0205 66.9668 27.1367 66.4336 27.1367C65.3991 27.1367 64.5788 26.8018 63.9727 26.1318C63.3665 25.4619 63.0635 24.5368 63.0635 23.3564V23.1855C63.0635 22.0599 63.3643 21.1598 63.9658 20.4854C64.5674 19.8063 65.3877 19.4668 66.4268 19.4668C67.3063 19.4668 68.0218 19.7243 68.5732 20.2393C69.1292 20.7497 69.4209 21.4219 69.4482 22.2559H67.8828C67.8646 21.832 67.7188 21.4834 67.4453 21.21C67.1764 20.9365 66.8324 20.7998 66.4131 20.7998C65.8753 20.7998 65.4606 20.9958 65.1689 21.3877C64.8773 21.7751 64.7292 22.3652 64.7246 23.1582V23.4248C64.7246 24.2269 64.8682 24.8262 65.1553 25.2227C65.4469 25.6146 65.8662 25.8105 66.4131 25.8105ZM73.96 27.1367C72.9072 27.1367 72.0527 26.8063 71.3965 26.1455C70.7448 25.4801 70.4189 24.596 70.4189 23.4932V23.2881C70.4189 22.5498 70.5602 21.8913 70.8428 21.3125C71.1299 20.7292 71.5309 20.2757 72.0459 19.9521C72.5609 19.6286 73.1351 19.4668 73.7686 19.4668C74.7757 19.4668 75.5527 19.7881 76.0996 20.4307C76.651 21.0732 76.9268 21.9824 76.9268 23.1582V23.8281H72.0938C72.1439 24.4388 72.3467 24.9219 72.7021 25.2773C73.0622 25.6328 73.5133 25.8105 74.0557 25.8105C74.8167 25.8105 75.4365 25.5029 75.915 24.8877L76.8105 25.7422C76.5143 26.1842 76.1178 26.5283 75.6211 26.7744C75.1289 27.016 74.5752 27.1367 73.96 27.1367ZM73.7617 20.7998C73.306 20.7998 72.9368 20.9593 72.6543 21.2783C72.3763 21.5973 72.1986 22.0417 72.1211 22.6113H75.2861V22.4883C75.2497 21.9323 75.1016 21.513 74.8418 21.2305C74.582 20.9434 74.222 20.7998 73.7617 20.7998ZM84.7129 23.377C84.7129 24.5254 84.4554 25.4391 83.9404 26.1182C83.43 26.7972 82.7259 27.1367 81.8281 27.1367C80.9622 27.1367 80.2878 26.8245 79.8047 26.2002L79.7227 27H78.2188V16.5H79.8799V20.3145C80.3584 19.7493 81.0033 19.4668 81.8145 19.4668C82.7168 19.4668 83.4255 19.8018 83.9404 20.4717C84.4554 21.1416 84.7129 22.0781 84.7129 23.2812V23.377ZM83.0518 23.2334C83.0518 22.4313 82.9105 21.8298 82.6279 21.4287C82.3454 21.0277 81.9352 20.8271 81.3975 20.8271C80.6774 20.8271 80.1715 21.1416 79.8799 21.7705V24.8193C80.1761 25.4619 80.6865 25.7832 81.4111 25.7832C81.9307 25.7832 82.3317 25.5895 82.6143 25.2021C82.8968 24.8148 83.0426 24.2292 83.0518 23.4453V23.2334ZM85.7998 23.2334C85.7998 22.5088 85.9434 21.8571 86.2305 21.2783C86.5176 20.695 86.9209 20.2484 87.4404 19.9385C87.96 19.624 88.557 19.4668 89.2314 19.4668C90.2295 19.4668 91.0384 19.7881 91.6582 20.4307C92.2826 21.0732 92.6198 21.9255 92.6699 22.9873L92.6768 23.377C92.6768 24.1061 92.5355 24.7578 92.2529 25.332C91.9749 25.9062 91.5739 26.3506 91.0498 26.665C90.5303 26.9795 89.9287 27.1367 89.2451 27.1367C88.2015 27.1367 87.3652 26.7904 86.7363 26.0977C86.112 25.4004 85.7998 24.473 85.7998 23.3154V23.2334ZM87.4609 23.377C87.4609 24.138 87.6182 24.735 87.9326 25.168C88.2471 25.5964 88.6846 25.8105 89.2451 25.8105C89.8057 25.8105 90.2409 25.5918 90.5508 25.1543C90.8652 24.7168 91.0225 24.0765 91.0225 23.2334C91.0225 22.486 90.8607 21.8936 90.5371 21.4561C90.2181 21.0186 89.7829 20.7998 89.2314 20.7998C88.6891 20.7998 88.2585 21.0163 87.9395 21.4492C87.6204 21.8776 87.4609 22.5202 87.4609 23.377ZM93.7705 23.2334C93.7705 22.5088 93.9141 21.8571 94.2012 21.2783C94.4883 20.695 94.8916 20.2484 95.4111 19.9385C95.9307 19.624 96.5277 19.4668 97.2021 19.4668C98.2002 19.4668 99.0091 19.7881 99.6289 20.4307C100.253 21.0732 100.59 21.9255 100.641 22.9873L100.647 23.377C100.647 24.1061 100.506 24.7578 100.224 25.332C99.9456 25.9062 99.5446 26.3506 99.0205 26.665C98.501 26.9795 97.8994 27.1367 97.2158 27.1367C96.1722 27.1367 95.3359 26.7904 94.707 26.0977C94.0827 25.4004 93.7705 24.473 93.7705 23.3154V23.2334ZM95.4316 23.377C95.4316 24.138 95.5889 24.735 95.9033 25.168C96.2178 25.5964 96.6553 25.8105 97.2158 25.8105C97.7764 25.8105 98.2116 25.5918 98.5215 25.1543C98.8359 24.7168 98.9932 24.0765 98.9932 23.2334C98.9932 22.486 98.8314 21.8936 98.5078 21.4561C98.1888 21.0186 97.7536 20.7998 97.2021 20.7998C96.6598 20.7998 96.2292 21.0163 95.9102 21.4492C95.5911 21.8776 95.4316 22.5202 95.4316 23.377ZM104.455 23.8281L103.717 24.5869V27H102.056V16.5H103.717V22.5566L104.236 21.9072L106.28 19.6035H108.276L105.528 22.6865L108.57 27H106.649L104.455 23.8281Z" fill="white"/>
<defs>
<filter id="filter0_ddd" x="0" y="0" width="120" height="46" filterUnits="userSpaceOnUse" color-interpolation-filters="sRGB">
<feFlood flood-opacity="0" result="BackgroundImageFix"/>
<feColorMatrix in="SourceAlpha" type="matrix" values="0 0 0 0 0 0 0 0 0 0 0 0 0 0 0 0 0 0 127 0"/>
<feOffset dy="1"/>
<feGaussianBlur stdDeviation="1.5"/>
<feColorMatrix type="matrix" values="0 0 0 0 0 0 0 0 0 0 0 0 0 0 0 0 0 0 0.2 0"/>
<feBlend mode="normal" in2="BackgroundImageFix" result="effect1_dropShadow"/>
<feColorMatrix in="SourceAlpha" type="matrix" values="0 0 0 0 0 0 0 0 0 0 0 0 0 0 0 0 0 0 127 0"/>
<feOffset dy="2"/>
<feGaussianBlur stdDeviation="1"/>
<feColorMatrix type="matrix" values="0 0 0 0 0 0 0 0 0 0 0 0 0 0 0 0 0 0 0.12 0"/>
<feBlend mode="normal" in2="effect1_dropShadow" result="effect2_dropShadow"/>
<feColorMatrix in="SourceAlpha" type="matrix" values="0 0 0 0 0 0 0 0 0 0 0 0 0 0 0 0 0 0 127 0"/>
<feOffset/>
<feGaussianBlur stdDeviation="1"/>
<feColorMatrix type="matrix" values="0 0 0 0 0 0 0 0 0 0 0 0 0 0 0 0 0 0 0.14 0"/>
<feBlend mode="normal" in2="effect2_dropShadow" result="effect3_dropShadow"/>
<feBlend mode="normal" in="SourceGraphic" in2="effect3_dropShadow" result="shape"/>
</filter>
<clipPath id="clip0">
<rect width="24" height="24" fill="white" transform="translate(11 10)"/>
</clipPath>
</defs>
</svg>
