<svg width="109" height="46" viewBox="0 0 109 46" fill="none" xmlns="http://www.w3.org/2000/svg">
<g filter="url(#filter0_ddd)">
<rect x="3" y="2" width="103" height="40" rx="2" fill="white"/>
</g>
<path fill-rule="evenodd" clip-rule="evenodd" d="M20 16.48C21.69 16.48 22.83 17.21 23.48 17.82L26.02 15.34C24.46 13.89 22.43 13 20 13C16.48 13 13.44 15.02 11.96 17.96L14.87 20.22C15.6 18.05 17.62 16.48 20 16.48Z" fill="#EA4335"/>
<path fill-rule="evenodd" clip-rule="evenodd" d="M28.64 22.1994C28.64 21.4594 28.58 20.9194 28.45 20.3594H20V23.6994H24.96C24.86 24.5294 24.32 25.7794 23.12 26.6194L25.96 28.8194C27.66 27.2494 28.64 24.9394 28.64 22.1994Z" fill="#4285F4"/>
<path fill-rule="evenodd" clip-rule="evenodd" d="M14.88 23.78C14.69 23.22 14.58 22.62 14.58 22C14.58 21.38 14.69 20.78 14.87 20.22L11.96 17.96C11.35 19.18 11 20.55 11 22C11 23.45 11.35 24.82 11.96 26.04L14.88 23.78Z" fill="#FBBC05"/>
<path fill-rule="evenodd" clip-rule="evenodd" d="M20.0002 30.9993C22.4302 30.9993 24.4702 30.1993 25.9602 28.8193L23.1202 26.6193C22.3602 27.1493 21.3402 27.5193 20.0002 27.5193C17.6202 27.5193 15.6002 25.9493 14.8802 23.7793L11.9702 26.0393C13.4502 28.9793 16.4802 30.9993 20.0002 30.9993Z" fill="#34A853"/>
<path d="M61.8828 25.708C61.5228 26.1774 61.0238 26.5329 60.3857 26.7744C59.7477 27.016 59.0231 27.1367 58.2119 27.1367C57.3779 27.1367 56.6396 26.9476 55.9971 26.5693C55.3545 26.1911 54.8577 25.651 54.5068 24.9492C54.1605 24.2428 53.9805 23.4202 53.9668 22.4814V21.7021C53.9668 20.1982 54.3268 19.0247 55.0469 18.1816C55.7669 17.334 56.7718 16.9102 58.0615 16.9102C59.1689 16.9102 60.0485 17.1836 60.7002 17.7305C61.3519 18.2773 61.7438 19.0658 61.876 20.0957H60.1807C59.9893 18.8971 59.2943 18.2979 58.0957 18.2979C57.321 18.2979 56.7308 18.5781 56.3252 19.1387C55.9242 19.6947 55.7168 20.5127 55.7031 21.5928V22.3584C55.7031 23.4339 55.9287 24.2702 56.3799 24.8672C56.8356 25.4596 57.4668 25.7559 58.2734 25.7559C59.1576 25.7559 59.7865 25.5553 60.1602 25.1543V23.2061H58.1094V21.8936H61.8828V25.708ZM63.3115 23.2334C63.3115 22.5088 63.4551 21.8571 63.7422 21.2783C64.0293 20.695 64.4326 20.2484 64.9521 19.9385C65.4717 19.624 66.0687 19.4668 66.7432 19.4668C67.7412 19.4668 68.5501 19.7881 69.1699 20.4307C69.7943 21.0732 70.1315 21.9255 70.1816 22.9873L70.1885 23.377C70.1885 24.1061 70.0472 24.7578 69.7646 25.332C69.4867 25.9062 69.0856 26.3506 68.5615 26.665C68.042 26.9795 67.4404 27.1367 66.7568 27.1367C65.7132 27.1367 64.877 26.7904 64.248 26.0977C63.6237 25.4004 63.3115 24.473 63.3115 23.3154V23.2334ZM64.9727 23.377C64.9727 24.138 65.1299 24.735 65.4443 25.168C65.7588 25.5964 66.1963 25.8105 66.7568 25.8105C67.3174 25.8105 67.7526 25.5918 68.0625 25.1543C68.377 24.7168 68.5342 24.0765 68.5342 23.2334C68.5342 22.486 68.3724 21.8936 68.0488 21.4561C67.7298 21.0186 67.2946 20.7998 66.7432 20.7998C66.2008 20.7998 65.7702 21.0163 65.4512 21.4492C65.1322 21.8776 64.9727 22.5202 64.9727 23.377ZM71.2822 23.2334C71.2822 22.5088 71.4258 21.8571 71.7129 21.2783C72 20.695 72.4033 20.2484 72.9229 19.9385C73.4424 19.624 74.0394 19.4668 74.7139 19.4668C75.7119 19.4668 76.5208 19.7881 77.1406 20.4307C77.765 21.0732 78.1022 21.9255 78.1523 22.9873L78.1592 23.377C78.1592 24.1061 78.0179 24.7578 77.7354 25.332C77.4574 25.9062 77.0563 26.3506 76.5322 26.665C76.0127 26.9795 75.4111 27.1367 74.7275 27.1367C73.6839 27.1367 72.8477 26.7904 72.2188 26.0977C71.5944 25.4004 71.2822 24.473 71.2822 23.3154V23.2334ZM72.9434 23.377C72.9434 24.138 73.1006 24.735 73.415 25.168C73.7295 25.5964 74.167 25.8105 74.7275 25.8105C75.2881 25.8105 75.7233 25.5918 76.0332 25.1543C76.3477 24.7168 76.5049 24.0765 76.5049 23.2334C76.5049 22.486 76.3431 21.8936 76.0195 21.4561C75.7005 21.0186 75.2653 20.7998 74.7139 20.7998C74.1715 20.7998 73.7409 21.0163 73.4219 21.4492C73.1029 21.8776 72.9434 22.5202 72.9434 23.377ZM79.2734 23.2471C79.2734 22.0986 79.5423 21.1826 80.0801 20.499C80.6224 19.8109 81.3402 19.4668 82.2334 19.4668C83.0765 19.4668 83.7396 19.7607 84.2227 20.3486L84.2979 19.6035H85.7949V26.7744C85.7949 27.7451 85.4919 28.5107 84.8857 29.0713C84.2842 29.6318 83.4707 29.9121 82.4453 29.9121C81.903 29.9121 81.3721 29.7982 80.8525 29.5703C80.3376 29.347 79.9456 29.0531 79.6768 28.6885L80.4629 27.6904C80.9733 28.2965 81.6022 28.5996 82.3496 28.5996C82.901 28.5996 83.3363 28.4492 83.6553 28.1484C83.9743 27.8522 84.1338 27.4147 84.1338 26.8359V26.3369C83.6553 26.8701 83.0173 27.1367 82.2197 27.1367C81.3538 27.1367 80.6452 26.7926 80.0938 26.1045C79.5469 25.4163 79.2734 24.4639 79.2734 23.2471ZM80.9277 23.3906C80.9277 24.1335 81.0781 24.7191 81.3789 25.1475C81.6842 25.5713 82.1058 25.7832 82.6436 25.7832C83.3135 25.7832 83.8102 25.4961 84.1338 24.9219V21.668C83.8193 21.1074 83.3271 20.8271 82.6572 20.8271C82.1104 20.8271 81.6842 21.0436 81.3789 21.4766C81.0781 21.9095 80.9277 22.5475 80.9277 23.3906ZM89.2744 27H87.6133V16.5H89.2744V27ZM94.3467 27.1367C93.2939 27.1367 92.4395 26.8063 91.7832 26.1455C91.1315 25.4801 90.8057 24.596 90.8057 23.4932V23.2881C90.8057 22.5498 90.9469 21.8913 91.2295 21.3125C91.5166 20.7292 91.9176 20.2757 92.4326 19.9521C92.9476 19.6286 93.5218 19.4668 94.1553 19.4668C95.1624 19.4668 95.9395 19.7881 96.4863 20.4307C97.0378 21.0732 97.3135 21.9824 97.3135 23.1582V23.8281H92.4805C92.5306 24.4388 92.7334 24.9219 93.0889 25.2773C93.4489 25.6328 93.9001 25.8105 94.4424 25.8105C95.2035 25.8105 95.8232 25.5029 96.3018 24.8877L97.1973 25.7422C96.901 26.1842 96.5046 26.5283 96.0078 26.7744C95.5156 27.016 94.9619 27.1367 94.3467 27.1367ZM94.1484 20.7998C93.6927 20.7998 93.3236 20.9593 93.041 21.2783C92.763 21.5973 92.5853 22.0417 92.5078 22.6113H95.6729V22.4883C95.6364 21.9323 95.4883 21.513 95.2285 21.2305C94.9688 20.9434 94.6087 20.7998 94.1484 20.7998Z" fill="black" fill-opacity="0.54"/>
<defs>
<filter id="filter0_ddd" x="0" y="0" width="109" height="46" filterUnits="userSpaceOnUse" color-interpolation-filters="sRGB">
<feFlood flood-opacity="0" result="BackgroundImageFix"/>
<feColorMatrix in="SourceAlpha" type="matrix" values="0 0 0 0 0 0 0 0 0 0 0 0 0 0 0 0 0 0 127 0"/>
<feOffset dy="1"/>
<feGaussianBlur stdDeviation="1.5"/>
<feColorMatrix type="matrix" values="0 0 0 0 0 0 0 0 0 0 0 0 0 0 0 0 0 0 0.2 0"/>
<feBlend mode="normal" in2="BackgroundImageFix" result="effect1_dropShadow"/>
<feColorMatrix in="SourceAlpha" type="matrix" values="0 0 0 0 0 0 0 0 0 0 0 0 0 0 0 0 0 0 127 0"/>
<feOffset dy="2"/>
<feGaussianBlur stdDeviation="1"/>
<feColorMatrix type="matrix" values="0 0 0 0 0 0 0 0 0 0 0 0 0 0 0 0 0 0 0.12 0"/>
<feBlend mode="normal" in2="effect1_dropShadow" result="effect2_dropShadow"/>
<feColorMatrix in="SourceAlpha" type="matrix" values="0 0 0 0 0 0 0 0 0 0 0 0 0 0 0 0 0 0 127 0"/>
<feOffset/>
<feGaussianBlur stdDeviation="1"/>
<feColorMatrix type="matrix" values="0 0 0 0 0 0 0 0 0 0 0 0 0 0 0 0 0 0 0.14 0"/>
<feBlend mode="normal" in2="effect2_dropShadow" result="effect3_dropShadow"/>
<feBlend mode="normal" in="SourceGraphic" in2="effect3_dropShadow" result="shape"/>
</filter>
</defs>
</svg>
