<svg width="63" height="42" viewBox="0 0 63 42" fill="none" xmlns="http://www.w3.org/2000/svg">
<rect width="63" height="42" rx="4" fill="white"/>
<path fill-rule="evenodd" clip-rule="evenodd" d="M31.5 5.25C40.1985 5.25 47.25 12.3015 47.25 21C47.25 29.6985 40.1985 36.75 31.5 36.75C22.8015 36.75 15.75 29.6985 15.75 21C15.75 12.3015 22.8015 5.25 31.5 5.25Z" fill="#0D0813"/>
<path fill-rule="evenodd" clip-rule="evenodd" d="M31.5 5.25C40.1985 5.25 47.25 12.3015 47.25 21C47.25 29.6985 40.1985 36.75 31.5 36.75C22.8015 36.75 15.75 29.6985 15.75 21C15.75 12.3015 22.8015 5.25 31.5 5.25Z" stroke="#1A1919" stroke-width="0.567"/>
<path fill-rule="evenodd" clip-rule="evenodd" d="M24.7416 16.8C27.0003 16.8 28.8936 18.3426 29.4 20.4184L27.4687 21.2519L27.4683 21.2479L25.4925 22.1047L20.7528 24.15C20.2457 23.3999 19.95 22.4987 19.95 21.5292C19.95 18.9174 22.0953 16.8 24.7416 16.8ZM26.7983 19.7407L22.0117 21.7763C22.0043 21.695 22.0003 21.6126 22.0003 21.5292C22.0003 20.0349 23.2277 18.8235 24.7416 18.8235C25.5609 18.8235 26.2959 19.1783 26.7983 19.7407Z" fill="#FFF101"/>
<path fill-rule="evenodd" clip-rule="evenodd" d="M28.35 24.7279C26.5423 26.5354 24.1511 26.7128 22.05 25.3689L23.2372 23.4674C24.4327 24.2202 25.6338 24.0982 26.8404 23.1001L28.35 24.7279Z" fill="#FFFFFE"/>
<path fill-rule="evenodd" clip-rule="evenodd" d="M30.4615 23.9217L30.45 14.7H32.0732V23.6727C32.0732 23.7588 32.0831 23.8346 32.188 23.8784L33.6 24.4695L32.9639 26.25L31.3098 25.4967C30.6826 25.211 30.4626 24.7971 30.4615 23.9217Z" fill="#FFFFFE"/>
<path fill-rule="evenodd" clip-rule="evenodd" d="M42 25.0655C41.1078 25.7999 39.9085 26.25 38.5894 26.25C35.8338 26.25 33.6 24.2872 33.6 21.8661C33.6 21.179 33.7801 20.5289 34.1009 19.95L35.9838 20.8272C35.8199 21.1439 35.7286 21.4957 35.7286 21.8661C35.7286 23.2543 37.0095 24.3796 38.5894 24.3796C39.3594 24.3796 40.0583 24.1123 40.5726 23.6775L42 25.0655Z" fill="#A91C2C"/>
<path fill-rule="evenodd" clip-rule="evenodd" d="M38.0291 16.8C40.802 16.8 43.05 18.7792 43.05 21.2207C43.05 21.8928 42.8794 22.5297 42.5746 23.1L40.6781 22.2145C40.826 21.9094 40.9079 21.5734 40.9079 21.2207C40.9079 19.8208 39.619 18.686 38.0291 18.686C37.2802 18.686 36.5983 18.9378 36.0862 19.3504L34.65 17.951C35.542 17.236 36.7277 16.8 38.0291 16.8Z" fill="#FFF101"/>
</svg>
