<svg width="63" height="42" viewBox="0 0 63 42" fill="none" xmlns="http://www.w3.org/2000/svg">
<rect width="63" height="42" rx="4" fill="white"/>
<path d="M27.1803 32.542L5.25 32.5499V32.4966C5.25 32.4673 5.28498 32.277 5.32773 32.0738C5.37047 31.8707 5.43694 31.5475 5.47542 31.3556C5.51389 31.1638 5.57969 30.8379 5.62162 30.6313C5.66355 30.4247 5.73322 30.0806 5.77643 29.8667C5.81965 29.6527 5.88735 29.3147 5.92688 29.1155C5.96641 28.9163 6.03241 28.5903 6.07354 28.3911C6.11467 28.1919 6.1848 27.8478 6.22938 27.6265C6.27396 27.4052 6.34172 27.0671 6.37997 26.8753C6.41821 26.6835 6.47899 26.3877 6.51503 26.218C6.55107 26.0483 6.59701 25.819 6.61713 25.7083C6.63724 25.5976 6.70233 25.2717 6.76177 24.9839C6.82121 24.6962 6.88683 24.3702 6.90759 24.2596C6.92836 24.1489 6.99427 23.8229 7.05407 23.5352C7.11387 23.2475 7.17956 22.9215 7.20005 22.8108C7.22054 22.7002 7.2866 22.3742 7.34684 22.0865C7.40709 21.7987 7.47211 21.4788 7.49134 21.3755C7.51056 21.2722 7.56322 21.0066 7.60836 20.7853C7.6535 20.564 7.73891 20.1475 7.79816 19.8597C7.85741 19.572 7.95875 19.071 8.02337 18.7463C8.08798 18.4217 8.16519 18.0354 8.19495 17.8878C8.22471 17.7403 8.27852 17.4747 8.31453 17.2976C8.35054 17.1205 8.41594 16.8006 8.45985 16.5867C8.50376 16.3727 8.57521 16.0226 8.61862 15.8086C8.66203 15.5947 8.72893 15.2627 8.76728 15.0709C8.80563 14.879 8.87108 14.5591 8.91273 14.3599C8.95438 14.1607 9.02602 13.8106 9.07193 13.5819C9.11784 13.3532 9.19474 13.0031 9.24283 12.8039C9.29092 12.6047 9.3589 12.3632 9.39391 12.2673C9.42891 12.1714 9.52555 11.9635 9.60867 11.8053L9.75978 11.5176L9.89716 11.3358C9.97271 11.2358 10.1076 11.0777 10.1969 10.9846C10.2862 10.8914 10.437 10.7512 10.5319 10.6731C10.6267 10.5949 10.7641 10.4894 10.8371 10.4387C10.9101 10.3879 11.0534 10.299 11.1556 10.2411C11.2578 10.1833 11.4011 10.1075 11.4741 10.0728C11.5471 10.038 11.6964 9.97461 11.8059 9.93185C11.9154 9.88909 12.1244 9.81741 12.2703 9.77257C12.4163 9.72773 12.6904 9.66014 12.8793 9.62237C13.0682 9.5846 13.3668 9.53416 13.5428 9.51027L13.8629 9.46684L35.8064 9.4584L57.75 9.44995V9.50327C57.75 9.53259 57.7148 9.72283 57.6718 9.92601C57.6287 10.1292 57.5568 10.4765 57.512 10.6979C57.4671 10.9192 57.4017 11.2391 57.3665 11.4088C57.3314 11.5785 57.2648 11.9045 57.2186 12.1332C57.1724 12.3619 57.1013 12.712 57.0607 12.9112C57.02 13.1104 56.9541 13.4364 56.9143 13.6356C56.8745 13.8348 56.8083 14.1607 56.7671 14.3599C56.726 14.5591 56.6622 14.873 56.6253 15.0575C56.5885 15.2419 56.5218 15.5739 56.4771 15.7952C56.4325 16.0166 56.3607 16.3667 56.3177 16.5733C56.2747 16.7798 56.2092 17.0998 56.1721 17.2842C56.135 17.4686 56.0683 17.8006 56.0238 18.022C55.9793 18.2433 55.9077 18.5934 55.8647 18.8C55.8217 19.0066 55.7576 19.3205 55.7223 19.4975C55.687 19.6746 55.6205 20.0066 55.5745 20.2353C55.5286 20.464 55.4617 20.796 55.4258 20.9731C55.3899 21.1502 55.3258 21.464 55.2833 21.6706C55.2408 21.8772 55.1682 22.2334 55.1219 22.4621C55.0757 22.6908 55.0094 23.0167 54.9748 23.1864C54.9401 23.3561 54.8752 23.676 54.8305 23.8974C54.7859 24.1187 54.7148 24.4688 54.6727 24.6754C54.6305 24.882 54.5644 25.2079 54.5257 25.3998C54.487 25.5916 54.4198 25.9236 54.3763 26.1375C54.3328 26.3515 54.2618 26.7016 54.2185 26.9156C54.1752 27.1295 54.1102 27.4494 54.0742 27.6265C54.0382 27.8036 53.9723 28.1295 53.9278 28.3509C53.8834 28.5722 53.811 28.921 53.7671 29.126L53.6871 29.4986L53.5919 29.7564C53.5395 29.8982 53.4608 30.0867 53.417 30.1752C53.3731 30.2637 53.2838 30.4199 53.2185 30.5223C53.1532 30.6247 53.0622 30.7559 53.0162 30.8138C52.9702 30.8718 52.8319 31.0214 52.7088 31.1463L52.485 31.3734L52.2696 31.5282C52.1511 31.6133 52.0235 31.6998 51.986 31.7205C51.9485 31.7412 51.8057 31.8148 51.6688 31.8841C51.5318 31.9535 51.3383 32.0417 51.2388 32.0802C51.1393 32.1187 50.9422 32.1843 50.8009 32.2259C50.6595 32.2675 50.508 32.3085 50.4642 32.317C50.4204 32.3254 50.2684 32.3572 50.1264 32.3876C49.9844 32.418 49.6977 32.4634 49.4894 32.4885L49.1106 32.5341L27.1803 32.542V32.542ZM19.3779 26.8082H19.9486L19.9647 26.7658C19.9735 26.7425 19.9808 26.6876 19.9808 26.6439C19.9808 26.6001 19.9996 26.4412 20.0226 26.2906C20.0456 26.14 20.0995 25.7935 20.1425 25.5205C20.1854 25.2475 20.2498 24.837 20.2854 24.6083C20.3211 24.3796 20.3646 24.0869 20.3821 23.9577C20.3997 23.8286 20.4211 23.723 20.4297 23.723C20.4383 23.723 20.4752 23.78 20.5117 23.8498L20.578 23.9766L20.7251 24.1264L20.8723 24.2762L21.0534 24.3495L21.2345 24.4228L21.4503 24.4511L21.6662 24.4794L21.9402 24.4624L22.2142 24.4454L22.5109 24.3678L22.8075 24.2902L22.9668 24.2167C23.0543 24.1763 23.2096 24.0882 23.3118 24.0209L23.4976 23.8986L23.6708 23.7236C23.7661 23.6274 23.9005 23.473 23.9694 23.3806C24.0384 23.2882 24.0948 23.2059 24.0948 23.1977C24.0948 23.1894 24.1287 23.1322 24.1701 23.0705C24.2115 23.0089 24.2962 22.8377 24.3584 22.6901C24.4205 22.5425 24.5177 22.2769 24.5743 22.0999L24.6771 21.7779L24.7303 21.4991C24.7595 21.3457 24.7972 21.0922 24.8139 20.9357L24.8443 20.6512L24.8268 20.4097L24.8092 20.1682L24.7538 19.9268L24.6984 19.6853L24.6088 19.5046L24.5191 19.3238L24.3459 19.1382L24.1727 18.9527L23.9679 18.8456L23.763 18.7386L23.5374 18.684L23.3118 18.6294L23.0862 18.6127L22.8606 18.5959L22.6093 18.6251L22.358 18.6543L22.1528 18.7072L21.9477 18.7602L21.7695 18.8435C21.6715 18.8894 21.5289 18.9673 21.4526 19.0166C21.3763 19.0659 21.2976 19.1227 21.2777 19.1427C21.2578 19.1628 21.2102 19.1999 21.1719 19.2252L21.1022 19.2713L21.1509 19.0356C21.1777 18.906 21.2001 18.7849 21.2007 18.7665L21.2017 18.7329H20.7151H20.2285L20.1432 19.2762C20.0962 19.575 20.0222 20.0368 19.9785 20.3024C19.9349 20.568 19.8691 20.9664 19.8323 21.1877C19.7955 21.4091 19.7299 21.8014 19.6865 22.0596C19.6431 22.3179 19.5713 22.7283 19.527 22.9718C19.4828 23.2153 19.4179 23.5714 19.3829 23.7632C19.3479 23.9551 19.282 24.3172 19.2364 24.5681C19.1909 24.8189 19.1178 25.2173 19.0739 25.4534C19.03 25.6895 18.9585 26.0638 18.9151 26.2851C18.8717 26.5064 18.8297 26.7147 18.8217 26.7479L18.8072 26.8082H19.3779V26.8082ZM21.8347 23.7064L21.6131 23.7199L21.4683 23.694L21.3234 23.6682L21.1763 23.6003L21.0292 23.5324L20.9264 23.4332L20.8236 23.334L20.7643 23.1998C20.7317 23.1261 20.6898 23.0007 20.6712 22.9213L20.6374 22.777L20.6509 22.5457L20.6645 22.3145L20.7329 21.9523C20.7705 21.7531 20.838 21.3789 20.8829 21.1206C20.9279 20.8624 20.9959 20.4841 21.0341 20.2799L21.1036 19.9086L21.2557 19.7806C21.3394 19.7102 21.472 19.6158 21.5503 19.5709L21.6927 19.4893L21.8785 19.4311L22.0643 19.373L22.3032 19.3588L22.5421 19.3446L22.7366 19.3865L22.9311 19.4285L23.0684 19.4924L23.2056 19.5563L23.3207 19.6732L23.4358 19.7902L23.4979 19.9141C23.5321 19.9822 23.5801 20.1155 23.6045 20.2104L23.6491 20.3829L23.6354 20.8926L23.6218 21.4023L23.5536 21.7036C23.5161 21.8694 23.4448 22.1229 23.395 22.267L23.3046 22.5291L23.1938 22.7413C23.1329 22.858 23.039 23.0157 22.9851 23.0917C22.9312 23.1678 22.8453 23.2663 22.7942 23.3106C22.7431 23.355 22.6576 23.4243 22.6041 23.4647L22.5068 23.538L22.2816 23.6155L22.0563 23.6929L21.8347 23.7064V23.7064ZM27.3462 24.4439L27.6381 24.4473L27.9301 24.4204C28.0907 24.4056 28.3535 24.3748 28.514 24.3519C28.6746 24.329 28.952 24.2779 29.1305 24.2382L29.455 24.166L29.4711 24.0451C29.48 23.9786 29.5164 23.7807 29.5521 23.6052L29.6169 23.2862L29.6026 23.2718L29.5883 23.2573L29.4891 23.3057C29.4346 23.3324 29.2646 23.3959 29.1115 23.4469L28.833 23.5397L28.5408 23.5969L28.2486 23.6541L27.7841 23.655L27.3196 23.6559L27.1604 23.6045C27.0728 23.5762 26.944 23.5245 26.8741 23.4895L26.7471 23.426L26.6422 23.3303L26.5374 23.2345L26.4556 23.09L26.3738 22.9455L26.3225 22.7642L26.2712 22.5829L26.2709 22.2475L26.2705 21.9121L26.316 21.6128L26.3616 21.3136L26.761 21.2947L27.1604 21.2759L28.6368 21.2854L30.1132 21.295L30.1578 21.1039C30.1823 20.9987 30.2198 20.7814 30.2411 20.621L30.2798 20.3292L30.2807 20.0838L30.2815 19.8383L30.2394 19.6551L30.1974 19.4719L30.1279 19.3506C30.0897 19.2838 30.0223 19.1871 29.9782 19.1357C29.9341 19.0842 29.8554 19.0116 29.8032 18.9744C29.7511 18.9372 29.6487 18.8747 29.5757 18.8354L29.443 18.7641L29.2111 18.7076L28.9792 18.6511L28.6936 18.6235L28.4079 18.5959L28.1424 18.6134L27.877 18.6309L27.5585 18.6927L27.24 18.7545L27.0409 18.8349C26.9315 18.8792 26.7642 18.9599 26.6694 19.0143C26.5745 19.0686 26.4431 19.1571 26.3774 19.2109C26.3117 19.2647 26.198 19.3693 26.1246 19.4434C26.0513 19.5174 25.9429 19.6504 25.8836 19.739C25.8244 19.8275 25.7336 19.9845 25.6818 20.0877C25.6301 20.191 25.5626 20.3359 25.532 20.4097C25.5013 20.4835 25.4456 20.6344 25.4081 20.745C25.3707 20.8557 25.3118 21.067 25.2773 21.2145C25.2428 21.3621 25.1955 21.605 25.1723 21.7543L25.1299 22.0258L25.1303 22.425L25.1307 22.8242L25.1711 22.9986C25.1932 23.0945 25.2357 23.2394 25.2653 23.3206C25.295 23.4017 25.3498 23.5225 25.3872 23.5889C25.4246 23.6553 25.5044 23.7622 25.5646 23.8264C25.6248 23.8907 25.7338 23.9882 25.8068 24.0431C25.8797 24.0981 26.0097 24.1753 26.0955 24.2148L26.2516 24.2866L26.4691 24.3398C26.5888 24.369 26.7694 24.4036 26.8705 24.4167C26.9715 24.4298 27.1856 24.4421 27.3462 24.4439H27.3462ZM27.8461 20.6646C27.1113 20.6646 26.5101 20.6592 26.5101 20.6528C26.5101 20.6463 26.5415 20.5527 26.5798 20.4448C26.6181 20.337 26.6854 20.1764 26.7293 20.0881L26.8092 19.9274L26.9848 19.7509L27.1604 19.5744L27.3329 19.491C27.4278 19.4452 27.5532 19.3952 27.6116 19.3801C27.67 19.3649 27.8372 19.3448 27.9832 19.3353L28.2486 19.3182L28.4524 19.3447L28.6563 19.3711L28.8044 19.4397L28.9525 19.5082L29.0338 19.5968C29.0784 19.6455 29.1317 19.7172 29.1521 19.7562L29.1892 19.827L29.2137 19.9842L29.2382 20.1414L29.2102 20.403L29.1821 20.6646H27.8461V20.6646ZM35.7867 24.4441L36.0788 24.4474L36.4104 24.4076C36.5928 24.3858 36.8356 24.3496 36.9499 24.3272C37.0643 24.3048 37.2494 24.2603 37.3613 24.2283C37.4733 24.1964 37.5745 24.1618 37.5864 24.1516C37.5982 24.1413 37.6298 24.0195 37.6566 23.881C37.6835 23.7424 37.7172 23.5567 37.7317 23.4681C37.7462 23.3796 37.7537 23.3024 37.7483 23.2966C37.743 23.2908 37.7234 23.2983 37.7048 23.3132C37.6862 23.3282 37.556 23.3836 37.4154 23.4363L37.1598 23.5323L36.7959 23.6036L36.4319 23.6748L36.1225 23.6642L35.8131 23.6535L35.6373 23.5919L35.4615 23.5303L35.3257 23.4102L35.1899 23.2901L35.0998 23.1242L35.0097 22.9584L34.9668 22.7365L34.9239 22.5146L34.9242 22.2268L34.9244 21.9389L34.9766 21.5901L35.0287 21.2414L35.0839 21.0536C35.1142 20.9503 35.1486 20.8296 35.1602 20.7853C35.1718 20.741 35.2205 20.6143 35.2684 20.5036C35.3162 20.3929 35.4016 20.2219 35.4582 20.1235L35.5609 19.9446L35.6871 19.8125L35.8133 19.6803L35.9469 19.5965L36.0805 19.5128L36.2521 19.4593C36.3465 19.43 36.5133 19.3918 36.6228 19.3746L36.8218 19.3432L37.1138 19.358L37.4058 19.3728L37.7508 19.4426L38.0959 19.5124L38.2362 19.5654C38.3134 19.5945 38.3799 19.6183 38.384 19.6183C38.3882 19.6183 38.4067 19.5187 38.4252 19.3969C38.4437 19.2752 38.4766 19.0749 38.4984 18.9519C38.5201 18.8288 38.5327 18.7228 38.5263 18.7164C38.5199 18.7099 38.4161 18.6932 38.2958 18.6794C38.1754 18.6655 37.8483 18.6409 37.5688 18.6246L37.0607 18.5951L36.7024 18.6229L36.3441 18.6507L36.0787 18.7071L35.8133 18.7634L35.6423 18.8326C35.5483 18.8706 35.4106 18.9391 35.3363 18.985C35.262 19.0308 35.1675 19.0924 35.1262 19.1219C35.0849 19.1515 34.9596 19.2666 34.8478 19.3778L34.6445 19.58L34.531 19.7481C34.4686 19.8405 34.3606 20.0332 34.2911 20.1763L34.1646 20.4365L34.0677 20.7182C34.0144 20.8732 33.94 21.1267 33.9023 21.2816L33.8339 21.5633L33.809 21.8182L33.7842 22.0731L33.7844 22.4084L33.7847 22.7438L33.8098 22.9388L33.8348 23.1339L33.9143 23.3346L33.9938 23.5353L34.0856 23.6804L34.1775 23.8255L34.3235 23.9707L34.4695 24.116L34.6239 24.1985L34.7784 24.281L34.9813 24.338C35.0929 24.3693 35.2541 24.4053 35.3396 24.4179C35.4251 24.4305 35.6265 24.4423 35.7871 24.4441H35.7867ZM40.1527 24.4342L40.511 24.4238L40.7366 24.3654L40.9622 24.3071L41.1082 24.2373C41.1885 24.1989 41.3199 24.1232 41.4002 24.069C41.4804 24.0148 41.6047 23.9118 41.6763 23.84C41.7479 23.7683 41.8541 23.6459 41.9123 23.568C41.9705 23.4902 42.0216 23.43 42.0258 23.4343C42.0301 23.4387 42.0167 23.5627 41.9961 23.71C41.9755 23.8573 41.9583 24.0533 41.958 24.1455L41.9575 24.3132H42.4447H42.9318L42.9467 23.9309L42.9616 23.5486L43.0311 23.0523C43.0693 22.7793 43.1311 22.3749 43.1683 22.1535C43.2055 21.9322 43.2703 21.5579 43.3121 21.3219C43.354 21.0858 43.4204 20.7176 43.4596 20.5036L43.5308 20.1146L43.5332 19.7786L43.5356 19.4426L43.4604 19.2873L43.3853 19.132L43.2834 19.033L43.1814 18.9341L43.0141 18.8484L42.8467 18.7627L42.5973 18.7066L42.3479 18.6506L42.0045 18.6241L41.6611 18.5977L41.2188 18.6254C40.9755 18.6406 40.6331 18.6707 40.4579 18.6922L40.1394 18.7313L39.9224 18.7321L39.7053 18.7329L39.6737 18.8872C39.6564 18.972 39.6081 19.1736 39.5665 19.3351C39.5248 19.4967 39.4946 19.6327 39.4993 19.6375C39.5041 19.6422 39.6201 19.6156 39.7573 19.5783C39.8945 19.541 40.1859 19.4796 40.4049 19.4419L40.803 19.3734L41.1613 19.3585L41.5196 19.3435L41.7504 19.3844L41.9812 19.4253L42.1353 19.5022L42.2893 19.579L42.3756 19.709L42.4619 19.8389L42.4606 20.0438L42.4594 20.2487L42.4137 20.4736L42.368 20.6984L41.4129 20.7019L40.4579 20.7054L40.1454 20.792C39.9735 20.8396 39.7831 20.9029 39.7223 20.9326C39.6616 20.9622 39.6008 20.9865 39.5873 20.9865C39.5738 20.9865 39.4715 21.0438 39.36 21.1139L39.1574 21.2413L38.9978 21.4023C38.91 21.4908 38.7978 21.6237 38.7485 21.6974C38.6992 21.7712 38.6191 21.9253 38.5705 22.0399L38.4822 22.2483L38.4416 22.4826L38.4011 22.7169V22.9627V23.2085L38.4398 23.4132L38.4786 23.6178L38.5504 23.7513C38.59 23.8247 38.6625 23.9323 38.7117 23.9903L38.801 24.0958L38.9597 24.1933L39.1185 24.2907L39.3002 24.3427C39.4001 24.3713 39.5523 24.4059 39.6382 24.4196L39.7946 24.4445L40.1529 24.4342L40.1527 24.4342ZM40.4845 23.684L40.2721 23.6952L40.1315 23.659C40.0541 23.6391 39.9368 23.5947 39.8707 23.5603L39.7505 23.4978L39.6849 23.419C39.6488 23.3757 39.5937 23.2905 39.5624 23.2298L39.5056 23.1194L39.4944 22.8615L39.4832 22.6036L39.5282 22.4471C39.553 22.3611 39.611 22.2118 39.6573 22.1153L39.7413 21.94L39.9022 21.7785L40.0631 21.617L40.234 21.5338L40.4048 21.4507L40.6172 21.3997L40.8295 21.3487H41.493H42.1566L42.1986 21.3662L42.2406 21.3838L42.2052 21.5943C42.1858 21.71 42.1394 21.9195 42.1022 22.0596C42.065 22.1998 41.9993 22.4059 41.9562 22.5176C41.9132 22.6292 41.8779 22.728 41.8779 22.737C41.8779 22.746 41.8343 22.8273 41.781 22.9178L41.684 23.0823L41.5249 23.2417C41.4373 23.3293 41.3561 23.4011 41.3443 23.4011C41.3325 23.4011 41.2789 23.4312 41.2251 23.4682L41.1272 23.5353L40.912 23.604L40.6968 23.6728L40.4845 23.684V23.684ZM49.1239 24.4438L49.376 24.447L49.6149 24.4078C49.7463 24.3862 49.9135 24.3515 49.9865 24.3306C50.0595 24.3097 50.1908 24.2556 50.2784 24.2102L50.4377 24.1277L50.5747 24.0058L50.7117 23.8839L50.856 23.6894C50.9353 23.5825 51.0072 23.4768 51.0157 23.4547L51.0311 23.4145L51.0177 23.5486C51.0103 23.6224 50.9938 23.7431 50.9809 23.8169C50.9681 23.8907 50.9497 24.0325 50.9401 24.1321L50.9225 24.3132H51.4432H51.9639V24.1321V23.951L52.0432 23.2669C52.0868 22.8906 52.1513 22.3896 52.1865 22.1535C52.2218 21.9174 52.2761 21.5794 52.3074 21.4023C52.3386 21.2253 52.3939 20.9054 52.4303 20.6914C52.4666 20.4774 52.5323 20.1032 52.5762 19.8597C52.6202 19.6163 52.6904 19.2299 52.7324 19.0012C52.7744 18.7725 52.8397 18.4164 52.8775 18.2098C52.9152 18.0032 52.9829 17.641 53.0279 17.4049C53.0728 17.1688 53.1385 16.8368 53.1738 16.6671C53.209 16.4975 53.2379 16.3496 53.2378 16.3385V16.3184H52.6698H52.1017L52.0849 16.4861C52.0757 16.5783 52.0322 16.8831 51.9883 17.1635C51.9444 17.4438 51.8728 17.8905 51.8292 18.1561C51.7856 18.4217 51.7436 18.6793 51.7358 18.7285L51.7217 18.8179L51.6769 18.7986C51.6522 18.788 51.5186 18.7506 51.3799 18.7154L51.1277 18.6514L50.7827 18.6242L50.4376 18.597L50.1457 18.6245L49.8537 18.652L49.5883 18.7199L49.3229 18.7877L49.0707 18.912L48.8186 19.0363L48.6328 19.1753L48.447 19.3144L48.2865 19.4882C48.1983 19.5839 48.0708 19.7421 48.0032 19.8398L47.8804 20.0174L47.7361 20.3209C47.6568 20.4878 47.5602 20.7088 47.5215 20.8121C47.4828 20.9154 47.4146 21.1444 47.37 21.3209L47.2887 21.6419L47.2487 22.0587L47.2087 22.4755L47.2387 22.8108L47.2688 23.1462L47.3043 23.2669C47.3238 23.3333 47.3651 23.4516 47.3959 23.5298L47.4519 23.672L47.5541 23.8118L47.6563 23.9516L47.7729 24.0482L47.8896 24.1448L48.0489 24.2247C48.1365 24.2686 48.2834 24.3255 48.3754 24.3509C48.4674 24.3764 48.6167 24.407 48.7072 24.4189C48.7976 24.4308 48.9851 24.442 49.1238 24.4438H49.1239ZM49.5764 23.6826L49.376 23.6934L49.2407 23.6687C49.1663 23.6552 49.0473 23.6189 48.9762 23.5881L48.8469 23.5321L48.7381 23.442L48.6293 23.3519L48.5485 23.1954L48.4676 23.0389L48.4308 22.8645L48.394 22.6901L48.3971 22.3413L48.4002 21.9926L48.443 21.684L48.4858 21.3755L48.5523 21.1609C48.5888 21.0428 48.6189 20.9315 48.6192 20.9134C48.6194 20.8953 48.6555 20.7987 48.6994 20.6988C48.7433 20.5988 48.8167 20.4446 48.8625 20.356C48.9082 20.2675 48.9938 20.1295 49.0526 20.0493C49.1113 19.9692 49.216 19.8485 49.2853 19.7811C49.3545 19.7137 49.4646 19.6252 49.5299 19.5846L49.6487 19.5107L49.8574 19.4377L50.0661 19.3647L50.504 19.3644H50.942L51.1941 19.4351C51.3328 19.474 51.4801 19.5191 51.5214 19.5354L51.5964 19.5649L51.5818 19.6385C51.5737 19.679 51.5422 19.857 51.5117 20.0341C51.4812 20.2112 51.4211 20.5492 51.3781 20.7853C51.3352 21.0214 51.2692 21.3775 51.2315 21.5767C51.1938 21.7759 51.1392 22.0295 51.1102 22.1401C51.0811 22.2508 51.0402 22.4041 51.0191 22.4808C50.9981 22.5574 50.948 22.6902 50.9078 22.7759C50.8676 22.8615 50.7973 22.9859 50.7516 23.0523C50.7058 23.1187 50.6284 23.2107 50.5796 23.2567C50.5307 23.3027 50.4251 23.3845 50.3448 23.4384L50.1988 23.5365L49.9878 23.6042L49.7768 23.6718L49.5764 23.6826V23.6826ZM10.5132 24.3132H11.1581L11.2044 24.0248C11.2298 23.8662 11.2795 23.5614 11.3148 23.3474C11.3501 23.1334 11.4158 22.735 11.4608 22.4621C11.5058 22.1891 11.5733 21.7846 11.6107 21.5633C11.6482 21.342 11.7077 20.9986 11.7429 20.8003C11.7782 20.602 11.8138 20.433 11.8219 20.4247L11.8368 20.4097H13.5709H15.305L15.3242 20.4292L15.3435 20.4486L15.3134 20.6035C15.2969 20.6887 15.248 20.9516 15.2047 21.1877C15.1614 21.4238 15.0887 21.8222 15.0431 22.0731C14.9975 22.3239 14.9315 22.68 14.8965 22.8645C14.8615 23.0489 14.7907 23.4353 14.7391 23.723C14.6876 24.0107 14.6455 24.2612 14.6456 24.2797L14.6459 24.3132H15.2934H15.941L15.9696 24.1455C15.9854 24.0533 16.0108 23.8873 16.026 23.7766C16.0412 23.666 16.0779 23.4306 16.1076 23.2535C16.1372 23.0764 16.1965 22.7263 16.2392 22.4755C16.282 22.2246 16.3535 21.796 16.3982 21.5231C16.4429 21.2501 16.5092 20.8517 16.5456 20.6377C16.5819 20.4238 16.6467 20.0616 16.6895 19.8329C16.7324 19.6042 16.8037 19.2179 16.848 18.9744C16.8924 18.7309 16.9588 18.3627 16.9957 18.1561C17.0326 17.9495 17.0998 17.5753 17.145 17.3244C17.1903 17.0736 17.2475 16.7808 17.2721 16.6739L17.3168 16.4794H16.6612H16.0055L15.9877 16.6068C15.9779 16.6769 15.9462 16.8731 15.9173 17.0427C15.8884 17.2124 15.8358 17.5143 15.8005 17.7135C15.7651 17.9127 15.7005 18.2929 15.6569 18.5585C15.6133 18.8241 15.5577 19.1757 15.5334 19.3399L15.4891 19.6383L14.5267 19.658L13.5642 19.6776L12.758 19.6583C12.3146 19.6477 11.9494 19.6369 11.9464 19.6343C11.9434 19.6317 11.9585 19.5274 11.98 19.4026C12.0014 19.2777 12.042 19.0609 12.0702 18.9207C12.0984 18.7805 12.1517 18.5029 12.1888 18.3037C12.2259 18.1045 12.2679 17.857 12.2822 17.7537C12.2964 17.6504 12.3263 17.4784 12.3486 17.3714C12.3709 17.2644 12.4131 17.0391 12.4425 16.8706C12.4719 16.7022 12.5032 16.5453 12.5121 16.5219L12.5282 16.4794H11.8778H11.2275L11.1858 16.7141C11.1629 16.8432 11.1324 17.0273 11.1179 17.1232C11.1035 17.2191 11.0551 17.527 11.0103 17.8074C10.9655 18.0877 10.8994 18.5042 10.8634 18.7329C10.8274 18.9616 10.7618 19.3781 10.7176 19.6585C10.6735 19.9389 10.6006 20.3735 10.5558 20.6243C10.5109 20.8752 10.4459 21.2313 10.4114 21.4158C10.3768 21.6002 10.311 21.9503 10.2651 22.1938C10.2192 22.4372 10.1522 22.7813 10.1163 22.9584C10.0803 23.1355 10.0406 23.3407 10.028 23.4145C10.0153 23.4882 9.97425 23.701 9.93667 23.8873C9.89908 24.0736 9.86832 24.2457 9.86832 24.2696V24.3132H10.5132H10.5132ZM17.6524 24.3132H18.2233L18.2394 24.2708C18.2483 24.2474 18.2556 24.1862 18.2556 24.1347C18.2556 24.0832 18.2915 23.8156 18.3353 23.54C18.3792 23.2644 18.4517 22.8155 18.4964 22.5425C18.5412 22.2696 18.6072 21.8712 18.6432 21.6572C18.6793 21.4433 18.7433 21.0871 18.7856 20.8658C18.8278 20.6444 18.8927 20.3004 18.9297 20.1012C18.9668 19.902 19.0396 19.523 19.0915 19.259C19.1435 18.995 19.1925 18.7684 19.2004 18.7554L19.2149 18.7319L18.6375 18.7391L18.0602 18.7463L18.0121 19.0951C17.9856 19.2869 17.9278 19.6672 17.8836 19.9402C17.8394 20.2132 17.7725 20.6297 17.735 20.8658C17.6974 21.1019 17.632 21.4822 17.5895 21.7109C17.547 21.9396 17.482 22.2897 17.4449 22.4889C17.4078 22.6881 17.3413 23.0382 17.2971 23.2669C17.2528 23.4956 17.1935 23.7974 17.1652 23.9376C17.1369 24.0778 17.1065 24.2197 17.0976 24.2529L17.0815 24.3132H17.6524V24.3132ZM31.005 24.3132H31.5717L31.5887 24.0709C31.5981 23.9376 31.6301 23.6689 31.66 23.4739C31.6898 23.2789 31.7509 22.89 31.7957 22.6096C31.8405 22.3293 31.9238 21.8626 31.9808 21.5726C32.0378 21.2826 32.1023 20.9944 32.124 20.9321C32.1458 20.8698 32.1635 20.8022 32.1635 20.782C32.1635 20.7618 32.2062 20.6517 32.2582 20.5372C32.3103 20.4228 32.4073 20.2476 32.4739 20.1479L32.5949 19.9666L32.7568 19.8151L32.9187 19.6635L33.1184 19.5671L33.3181 19.4707L33.6234 19.4723L33.9286 19.4739L34.0787 19.5193C34.1612 19.5442 34.2358 19.5646 34.2445 19.5646C34.2532 19.5646 34.2604 19.5361 34.2604 19.5012C34.2604 19.4663 34.2902 19.2896 34.3267 19.1085C34.3632 18.9274 34.3931 18.7715 34.3931 18.7622C34.3931 18.7529 34.3065 18.7186 34.2006 18.6861C34.0948 18.6536 33.9485 18.6195 33.8755 18.6104L33.7428 18.5938L33.5703 18.6246C33.4754 18.6416 33.3343 18.6791 33.2567 18.7079C33.1792 18.7367 33.0511 18.802 32.9722 18.8531C32.8932 18.9041 32.7704 19.0036 32.6992 19.0741C32.6281 19.1447 32.5084 19.2869 32.4333 19.3902C32.3581 19.4935 32.2796 19.6021 32.2587 19.6317L32.2207 19.6853L32.2437 19.578C32.2564 19.519 32.2918 19.3258 32.3223 19.1487C32.3528 18.9717 32.3841 18.8057 32.3919 18.7799L32.406 18.7329H31.8999H31.3938V18.7976C31.3938 18.8331 31.364 19.0474 31.3275 19.2738C31.2909 19.5001 31.2307 19.8785 31.1937 20.1146C31.1566 20.3507 31.0908 20.7611 31.0475 21.0267C31.0041 21.2923 30.9383 21.6726 30.9012 21.8718C30.8641 22.071 30.7983 22.4211 30.7549 22.6498C30.7114 22.8786 30.6394 23.2528 30.5947 23.4815C30.55 23.7102 30.4965 23.9803 30.4759 24.0817C30.4552 24.1832 30.4383 24.2767 30.4383 24.2897V24.3132H31.005V24.3132ZM44.457 24.3132H45.0364V24.134V23.9547L45.1032 23.5102C45.1399 23.2657 45.2005 22.8786 45.2378 22.6499C45.2751 22.4211 45.3217 22.1314 45.3412 22.006C45.3607 21.8806 45.4125 21.6089 45.4562 21.4023C45.5 21.1958 45.5546 20.9724 45.5777 20.906C45.6007 20.8396 45.6197 20.77 45.6199 20.7512C45.6202 20.7325 45.6695 20.6119 45.7297 20.4833L45.8391 20.2495L45.9834 20.0557L46.1276 19.862L46.2856 19.742C46.3724 19.676 46.5121 19.5884 46.5959 19.5474L46.7484 19.4727L47.0801 19.475L47.4119 19.4773L47.5425 19.5197L47.6731 19.5621L47.6951 19.5484L47.7171 19.5346L47.7183 19.449C47.7189 19.4019 47.7473 19.2267 47.7814 19.0597L47.8434 18.756L47.7736 18.7284C47.7353 18.7132 47.6442 18.6817 47.5712 18.6585L47.4385 18.6163L47.1996 18.6169L46.9607 18.6175L46.766 18.6867L46.5713 18.756L46.4252 18.8451L46.279 18.9341L46.089 19.1354L45.8989 19.3366L45.7968 19.4927C45.7407 19.5785 45.6912 19.6449 45.687 19.6402C45.6827 19.6355 45.7132 19.4566 45.7548 19.2427C45.7964 19.0287 45.8309 18.8265 45.8315 18.7933L45.8327 18.7329H45.3416H44.8506V18.75C44.8506 18.7594 44.8261 18.9315 44.7962 19.1323C44.7663 19.3332 44.7062 19.7209 44.6627 19.9939C44.6192 20.2668 44.5478 20.7075 44.5041 20.9731C44.4603 21.2387 44.3944 21.619 44.3576 21.8182C44.3207 22.0174 44.2553 22.3675 44.2121 22.5962C44.169 22.8249 44.0981 23.1931 44.0546 23.4145C44.0111 23.6358 43.9535 23.9286 43.9265 24.0651L43.8776 24.3132H44.457L44.457 24.3132ZM18.775 17.7665L18.9362 17.7671L19.0643 17.723L19.1924 17.6789L19.3058 17.5626L19.4191 17.4464L19.4789 17.2915L19.5386 17.1366L19.5407 16.9086L19.5428 16.6806L19.4898 16.5915L19.4367 16.5025L19.3443 16.4446L19.2518 16.3868H19.0523L18.8528 16.3868L18.7169 16.4483L18.5811 16.5097L18.5022 16.5952L18.4233 16.6806L18.3614 16.8281L18.2995 16.9757L18.2878 17.2055L18.2761 17.4354L18.3337 17.5496L18.3914 17.6638L18.5026 17.7149L18.6139 17.7659L18.775 17.7665V17.7665Z" fill="#B3131B"/>
</svg>
