<svg width="63" height="42" viewBox="0 0 63 42" fill="none" xmlns="http://www.w3.org/2000/svg">
<rect width="63" height="42" rx="4" fill="white"/>
<path d="M38.85 8.3999H24.15V33.5999H38.85V8.3999Z" fill="#FF5F00"/>
<path d="M25.5509 20.9978C25.5491 18.613 26.0837 16.259 27.1144 14.1139C28.1451 11.9689 29.6448 10.089 31.5 8.61657C29.2022 6.79054 26.4427 5.65504 23.5369 5.33985C20.6311 5.02466 17.6962 5.54249 15.0677 6.83416C12.4392 8.12583 10.2231 10.1392 8.67263 12.6442C7.12219 15.1493 6.29999 18.0448 6.29999 21C6.29999 23.9552 7.12219 26.8507 8.67263 29.3558C10.2231 31.8608 12.4392 33.8742 15.0677 35.1658C17.6962 36.4575 20.6311 36.9753 23.5369 36.6602C26.4427 36.345 29.2022 35.2095 31.5 33.3834C29.6442 31.9105 28.1441 30.03 27.1134 27.8841C26.0828 25.7383 25.5484 23.3834 25.5509 20.9978V20.9978Z" fill="#EB001B"/>
<path d="M55.083 30.4499V29.5799H55.433V29.3999H54.6V29.5799H54.929V30.4499H55.083ZM56.7 30.4499V29.3999H56.448L56.154 30.1499L55.86 29.3999H55.608V30.4499H55.79V29.6549L56.063 30.3374H56.252L56.525 29.6549V30.4499H56.7Z" fill="#F79E1B"/>
<path d="M56.7 21.0022C56.6999 23.9572 55.8776 26.8527 54.327 29.3575C52.7765 31.8623 50.5602 33.8754 47.9316 35.1667C45.303 36.4581 42.3681 36.9755 39.4624 36.6599C36.5567 36.3443 33.7974 35.2084 31.5 33.382C33.3543 31.9084 34.8535 30.0282 35.8843 27.8833C36.9152 25.7384 37.4508 23.3848 37.4508 21C37.4508 18.6152 36.9152 16.2616 35.8843 14.1167C34.8535 11.9717 33.3543 10.0916 31.5 8.618C33.7974 6.79161 36.5567 5.65569 39.4624 5.34008C42.3681 5.02448 45.303 5.54192 47.9316 6.83325C50.5602 8.12459 52.7765 10.1377 54.327 12.6425C55.8776 15.1473 56.6999 18.0428 56.7 20.9978V21.0022Z" fill="#F79E1B"/>
</svg>
