<svg width="28" height="28" viewBox="0 0 28 28" fill="none" xmlns="http://www.w3.org/2000/svg">
<path d="M23.132 4.87593C20.7907 2.54258 17.5659 1.09275 14.0001 1.09275C10.4344 1.09275 7.20928 2.54258 4.87593 4.87593C2.54257 7.20929 1.09304 10.4341 1.09304 14.0001C1.09304 17.5662 2.54257 20.7907 4.87593 23.132C7.20928 25.4653 10.4344 26.9073 14.0001 26.9073C17.5659 26.9073 20.7907 25.4653 23.132 23.132C25.4654 20.7907 26.9073 17.5662 26.9073 14.0001C26.9073 10.4341 25.4654 7.20929 23.132 4.87593ZM14.0001 0C17.8682 0 21.3644 1.56575 23.8993 4.10069C26.4343 6.63592 28 10.1319 28 14.0001C28 17.8681 26.4343 21.3644 23.8993 23.8993C21.3644 26.4342 17.8682 28 14.0001 28C13.1766 28 12.3697 27.929 11.5857 27.7928C9.72049 27.4688 7.98283 26.7758 6.44931 25.7913C5.59943 25.2459 4.81233 24.6107 4.1007 23.8993C1.56604 21.3644 0 17.8681 0 14.0001C0 10.1319 1.56604 6.63592 4.1007 4.10069C6.63564 1.56575 10.1319 0 14.0001 0Z" fill="#3B5998"/>
<path fill-rule="evenodd" clip-rule="evenodd" d="M15.0691 11.1404V9.99311C15.0691 9.44264 15.4335 9.31117 15.6973 9.31117C15.9529 9.31117 17.3018 9.31117 17.3018 9.31117V6.86133H15.0925C12.635 6.86133 12.0848 8.67531 12.0848 9.85373V11.1404H10.6582V12.869V14.0011H12.1001C12.1001 17.2491 12.1001 21.1484 12.1001 21.1484H14.9608C14.9608 21.1484 14.9608 17.1948 14.9608 14.0011H17.077L17.1703 12.8769L17.3405 11.1404H15.0691Z" fill="#3B5998"/>
</svg>
