<svg width="28" height="28" viewBox="0 0 28 28" fill="none" xmlns="http://www.w3.org/2000/svg">
<path d="M23.1241 4.87456C20.7905 2.54158 17.5663 1.10035 14.0003 1.10035C10.4337 1.10035 7.20949 2.54158 4.87587 4.87456C2.53519 7.20725 1.09301 10.4391 1.09301 14.0038C1.09301 17.5609 2.53519 20.7927 4.87587 23.1254C7.20949 25.4579 10.4337 26.9073 14.0003 26.9073C17.5663 26.9073 20.7905 25.4579 23.1241 23.1254C25.4651 20.7927 26.907 17.5609 26.907 14.0038C26.907 10.4391 25.4651 7.20725 23.1241 4.87456ZM14.0003 0C17.8683 0 21.3644 1.57294 23.8993 4.09953C26.4343 6.63376 28 10.1366 28 14.0038C28 17.8631 26.4343 21.3662 23.8993 23.9002C21.3644 26.4268 17.8683 28 14.0003 28C10.1318 28 6.63584 26.4268 4.10121 23.9002C1.56573 21.3662 0 17.8631 0 14.0038C0 10.1366 1.56573 6.63376 4.10121 4.09953C6.63584 1.57294 10.1318 0 14.0003 0Z" fill="#00ACED"/>
<path fill-rule="evenodd" clip-rule="evenodd" d="M21.1478 9.6413C20.6282 9.86629 20.0627 10.0212 19.4659 10.0986C20.078 9.73458 20.5428 9.17635 20.7605 8.49432C20.1945 8.82756 19.5589 9.06781 18.8922 9.19952C18.3644 8.63394 17.5976 8.28516 16.7449 8.28516C15.1326 8.28516 13.8145 9.5794 13.8145 11.1679C13.8145 11.4005 13.8535 11.6176 13.8999 11.827C11.4583 11.7106 9.29514 10.5636 7.85324 8.81201C7.60529 9.24616 7.45034 9.73458 7.45034 10.2614C7.45034 11.2688 7.97733 12.1524 8.75228 12.6639C8.27193 12.656 7.82211 12.5243 7.42715 12.3072C7.42715 12.3228 7.42715 12.3307 7.42715 12.346C7.42715 12.7179 7.49699 13.0591 7.62846 13.3844C7.98526 14.2914 8.79923 14.9732 9.78396 15.1671C9.52753 15.2369 9.27957 15.2753 9.00843 15.2753C8.8224 15.2753 8.63637 15.2522 8.45769 15.2134C8.83795 16.3604 9.91514 17.1973 11.1948 17.2284C10.1866 18.0035 8.93098 18.4608 7.55891 18.4608C7.31831 18.4608 7.09383 18.445 6.85352 18.4218C8.15575 19.2358 9.69829 19.716 11.3497 19.716C15.931 19.716 18.7605 16.5464 19.4964 13.2527C19.6288 12.6639 19.6904 12.0825 19.6904 11.509C19.6904 11.385 19.6904 11.2535 19.6904 11.1371C20.2564 10.7264 20.7605 10.2148 21.1478 9.6413Z" fill="#00ACED"/>
</svg>
